<?xml version="1.0" standalone="no"?>
<!DOCTYPE svg PUBLIC "-//W3C//DTD SVG 20010904//EN"
 "http://www.w3.org/TR/2001/REC-SVG-20010904/DTD/svg10.dtd">
<svg version="1.0" xmlns="http://www.w3.org/2000/svg"
 width="1440.000000pt" height="368.000000pt" viewBox="0 0 1440.000000 368.000000"
 preserveAspectRatio="xMidYMid meet">
<metadata>
Created by potrace 1.16, written by Peter Selinger 2001-2019
</metadata>
<g transform="translate(0.000000,368.000000) scale(0.100000,-0.100000)"
fill="#000000" stroke="none">
<path d="M353 3665 c-17 -18 -17 -18 8 -46 17 -20 18 -25 6 -27 -9 -2 -18 -9
-21 -17 -3 -9 0 -12 8 -9 9 4 13 -4 12 -25 -1 -35 -11 -39 -27 -13 -8 13 -20
17 -40 14 -17 -3 -29 0 -29 7 0 6 5 11 10 11 16 0 12 30 -5 36 -13 5 -13 8 1
21 15 16 15 34 -2 40 -16 5 -35 -48 -23 -64 9 -10 8 -13 -1 -13 -7 0 -10 -6
-7 -14 3 -8 -1 -20 -9 -26 -8 -7 -14 -23 -14 -35 0 -13 -7 -26 -16 -29 -8 -3
-14 -14 -12 -23 4 -29 -10 -45 -26 -30 -8 6 -11 18 -9 24 3 7 0 13 -6 13 -6 0
-10 3 -10 8 3 19 -2 23 -16 12 -19 -16 -40 -3 -25 15 14 17 -7 32 -22 17 -17
-17 -41 14 -34 43 4 14 2 25 -4 25 -5 0 -10 -9 -10 -19 0 -10 -7 -21 -15 -25
-13 -5 -15 -60 -15 -417 0 -387 1 -411 18 -405 16 6 16 5 0 -8 -17 -12 -18
-47 -18 -481 l0 -467 28 6 c75 16 123 17 207 1 50 -10 105 -19 123 -22 17 -3
32 -10 32 -16 0 -6 3 -8 6 -5 3 3 15 -4 28 -16 58 -55 91 -75 117 -69 15 3 35
0 46 -6 15 -9 14 -10 -14 -11 -18 0 -33 -4 -33 -8 0 -5 15 -28 33 -52 36 -49
82 -115 78 -115 -1 0 0 -7 3 -15 2 -8 7 -36 11 -62 3 -26 10 -50 14 -52 9 -6
8 -37 -3 -54 -4 -7 -3 -19 3 -26 17 -20 -21 -78 -99 -154 -44 -43 -64 -69 -62
-82 2 -11 0 -20 -5 -21 -66 -7 -72 -6 -78 9 -9 23 10 37 58 41 5 1 6 5 3 9 -7
12 -94 14 -101 2 -8 -12 -45 -13 -45 -1 0 16 -40 0 -51 -20 -5 -11 -7 -19 -4
-19 13 0 -48 -70 -66 -75 -11 -4 -31 -24 -45 -46 -13 -21 -28 -39 -33 -39 -10
0 -106 -63 -134 -87 -15 -15 -17 -40 -17 -263 l0 -247 24 -22 c21 -20 22 -26
13 -52 -6 -16 -16 -29 -23 -29 -7 0 -11 -25 -12 -70 l-2 -70 256 0 c223 0 255
2 250 15 -3 8 -2 14 2 14 21 -3 21 4 2 31 -12 16 -17 30 -12 30 6 0 12 -7 16
-15 6 -17 32 -20 41 -5 4 6 -7 15 -24 21 -36 13 -40 28 -11 36 11 3 19 12 18
21 -2 10 7 16 27 19 37 5 44 11 25 23 -12 7 -12 10 3 16 10 4 16 12 13 19 -6
16 74 38 100 28 12 -4 15 -3 10 5 -4 7 -2 12 4 12 7 0 10 52 9 164 l-1 164 38
68 c49 87 101 140 154 154 23 6 48 14 56 17 24 9 15 -17 -10 -28 -14 -7 -22
-17 -20 -24 3 -7 -4 -32 -15 -56 -12 -23 -21 -49 -21 -56 0 -7 -7 -13 -16 -13
-41 0 79 -72 351 -209 110 -56 201 -101 202 -101 1 0 17 15 35 33 18 18 74 55
123 81 50 27 108 66 129 87 69 66 167 76 266 27 l49 -25 30 38 c17 20 56 50
86 65 47 23 64 26 111 21 32 -3 52 -2 49 4 -4 5 -1 9 4 9 6 0 11 4 11 9 0 4
-12 6 -27 3 l-26 -5 22 32 22 31 -23 9 c-13 6 -17 10 -10 10 18 1 15 21 -3 21
-11 0 -14 7 -10 27 2 16 -1 30 -8 35 -9 6 -9 8 1 8 10 0 10 4 -2 16 -14 14
-14 17 4 36 11 12 17 25 14 29 -7 12 28 58 44 59 6 0 12 4 12 9 0 5 -6 12 -12
15 -10 5 -10 7 0 12 6 3 12 10 12 16 0 17 -64 -3 -89 -28 -13 -13 -27 -21 -32
-18 -13 8 -11 84 2 84 7 0 18 8 26 18 7 9 13 13 12 7 -3 -25 2 -28 17 -7 8 12
21 22 28 22 16 0 29 -27 20 -41 -3 -5 4 -9 16 -9 12 0 19 -4 15 -9 -3 -5 -1
-12 5 -16 5 -3 10 0 10 7 0 18 46 39 97 45 42 4 143 -29 143 -48 0 -5 9 -9 20
-9 11 0 20 -4 20 -9 0 -5 12 -14 28 -21 50 -21 72 -35 72 -45 0 -16 56 -46 74
-39 9 3 16 1 16 -5 0 -7 -7 -14 -15 -17 -8 -4 -15 -10 -15 -15 0 -5 7 -9 15
-9 8 0 15 -4 15 -10 0 -5 6 -9 13 -7 6 1 11 -4 10 -10 -2 -7 0 -12 5 -12 22 4
33 -3 30 -18 -2 -12 3 -17 15 -16 14 1 17 -4 14 -18 -3 -12 0 -19 10 -19 8 0
11 -4 8 -10 -3 -6 1 -7 9 -4 9 3 16 1 16 -5 0 -6 -5 -11 -11 -11 -5 0 -7 -5
-4 -10 4 -6 10 -8 15 -5 13 8 31 -21 24 -39 -3 -9 -10 -17 -15 -17 -5 -1 -15
-2 -21 -3 -20 -2 -16 -49 5 -52 11 -1 17 4 17 17 0 10 5 19 11 19 11 0 3 -38
-11 -53 -4 -5 -20 -1 -34 8 -28 18 -36 6 -11 -18 8 -8 11 -17 8 -21 -12 -12
-23 -6 -23 14 0 11 -5 20 -11 20 -6 0 -8 -9 -4 -22 12 -39 11 -43 -12 -41 -13
2 -23 -1 -23 -6 0 -18 -31 -41 -55 -41 -13 0 -27 -5 -31 -11 -5 -8 3 -10 28
-5 51 9 54 -5 6 -26 -24 -11 -38 -22 -33 -26 25 -18 55 -105 55 -158 0 -61
-15 -98 -68 -163 -57 -70 -54 -84 18 -104 53 -15 143 -17 856 -17 l797 0 -7
37 c-3 21 -6 64 -6 95 0 57 0 58 -27 54 -16 -2 -35 -6 -43 -9 -8 -3 -24 -8
-35 -12 -51 -18 -141 -32 -149 -24 -6 5 0 9 17 9 33 0 143 44 303 120 69 33
129 60 134 60 6 0 27 16 49 35 37 34 74 45 85 26 3 -5 -8 -11 -24 -15 -17 -3
-30 -12 -30 -21 0 -15 -87 -65 -113 -65 -8 0 -22 -9 -31 -19 -10 -11 -30 -24
-45 -31 -39 -16 -53 -51 -59 -153 l-5 -87 179 2 c98 2 178 7 176 11 -3 8 31
42 48 49 4 2 10 14 14 28 3 14 3 19 0 13 -3 -7 -10 -13 -15 -13 -12 0 17 69
40 95 10 11 21 27 24 36 3 9 21 23 41 33 19 9 38 21 41 26 10 16 21 11 33 -15
15 -33 1 -105 -27 -140 -11 -15 -21 -34 -21 -41 0 -9 -11 -14 -31 -14 -32 0
-69 -15 -69 -28 0 -16 78 -42 123 -42 46 0 47 1 47 30 0 23 4 30 20 30 11 0
20 5 20 10 0 6 8 10 18 10 12 0 13 -3 5 -8 -7 -4 -16 -22 -19 -40 l-6 -32 86
0 86 0 -29 52 c-16 29 -37 78 -46 109 -13 48 -19 56 -35 52 -15 -4 -20 0 -20
14 0 10 -9 36 -20 57 -14 28 -17 44 -9 57 12 23 -8 60 -28 52 -8 -3 -13 3 -13
18 0 21 -5 24 -33 23 -68 -2 -69 -2 -57 -24 6 -11 7 -20 1 -20 -5 0 -14 13
-19 30 -11 29 -9 31 31 49 23 10 65 26 92 34 82 24 165 65 172 84 14 36 109
131 198 198 55 40 117 66 255 105 41 11 120 38 175 60 55 21 108 41 119 44 14
5 17 12 12 34 -22 99 -29 205 -18 264 17 83 71 193 125 253 46 50 49 66 20
112 -10 15 -11 23 -3 28 13 8 40 -12 40 -31 0 -18 20 -28 32 -16 6 6 2 15 -13
26 -13 8 -20 18 -16 22 3 3 18 -2 33 -13 26 -19 27 -19 98 4 101 34 298 48
380 27 33 -9 77 -24 98 -35 40 -20 68 -25 68 -10 0 5 14 24 31 41 30 29 31 33
15 48 -9 9 -16 12 -16 6 0 -20 -99 -23 -145 -3 -16 7 -33 12 -37 11 -5 -1 -8
2 -8 7 0 5 -20 -2 -45 -16 -39 -21 -47 -23 -59 -10 -27 26 -8 67 31 67 18 0
24 -4 19 -15 -8 -22 21 -19 34 4 16 31 12 48 -12 55 -19 5 -21 8 -8 16 8 5 10
10 5 10 -6 0 -17 -6 -24 -12 -11 -11 -13 -10 -8 5 5 13 1 17 -18 17 -26 0 -34
15 -12 23 9 4 9 6 -1 6 -8 1 -16 -8 -19 -19 -7 -27 -16 -25 -52 11 -19 19 -37
29 -47 25 -10 -4 -16 3 -21 24 -6 33 -20 39 -30 14 -4 -10 0 -20 10 -26 9 -4
14 -15 11 -23 -4 -8 -1 -15 5 -15 6 0 11 -9 11 -21 0 -11 4 -18 9 -14 5 3 13
0 17 -7 10 -15 16 -67 6 -52 -4 6 -17 17 -30 23 -13 7 -21 18 -19 25 3 7 -4
18 -14 24 -16 10 -19 9 -19 -3 0 -8 -4 -15 -10 -15 -15 0 -12 21 7 42 9 11 11
18 5 18 -7 0 -12 -5 -12 -11 0 -5 -4 -8 -9 -5 -13 8 -2 86 16 114 8 14 19 20
26 15 7 -4 19 -8 27 -10 10 -1 9 3 -4 13 -11 8 -23 14 -26 14 -4 0 -7 6 -8 13
-1 6 -3 23 -5 37 -2 14 1 31 6 38 6 7 10 41 11 76 2 64 23 116 49 116 26 0 58
46 52 72 -4 15 1 41 11 64 10 21 21 47 25 56 6 13 3 16 -14 15 -21 -1 -49 -27
-122 -108 l-30 -34 -5 59 -5 58 -26 -26 c-23 -23 -28 -24 -39 -11 -18 22 -7
102 17 124 22 21 117 51 160 51 16 0 63 9 104 19 41 10 95 22 122 26 57 8 58
16 16 93 -35 63 -45 73 -66 65 -10 -4 -11 -9 -2 -19 6 -7 7 -19 3 -26 -4 -6
-9 -23 -11 -37 -6 -59 1 -59 -80 2 -75 56 -81 69 -78 167 1 53 -2 88 -9 92 -7
5 -5 8 5 8 16 0 17 4 38 130 10 66 52 149 104 204 44 47 47 49 91 44 26 -3 49
-2 52 3 3 5 10 9 15 9 6 0 8 -4 5 -9 -3 -5 16 -3 42 4 26 7 72 18 102 25 88
20 214 61 231 76 8 8 22 14 29 14 23 0 6 9 -30 15 -19 4 -39 8 -45 9 -20 4
-72 35 -84 50 -8 9 -23 16 -35 16 -11 0 -36 9 -54 20 -31 19 -50 20 -392 20
-331 0 -360 -1 -369 -17 -10 -17 -10 -17 -11 0 0 14 -9 17 -54 17 -44 0 -55
-4 -59 -17 -4 -17 -5 -17 -6 0 -1 16 -64 17 -1183 17 -1178 0 -1183 0 -1151
-20 18 -10 50 -37 72 -58 56 -54 340 -252 362 -252 9 0 27 16 39 35 12 19 25
35 29 35 4 0 27 18 51 39 46 41 135 71 211 71 41 0 49 -13 49 -86 0 -37 3 -43
31 -55 18 -7 49 -29 69 -49 33 -32 36 -38 21 -48 -13 -10 -13 -12 -1 -11 31 3
39 -2 60 -37 21 -33 22 -43 16 -132 -4 -53 -11 -101 -15 -105 -20 -20 -255 -5
-289 19 -2 1 6 17 17 35 24 40 26 50 7 43 -7 -3 -20 1 -28 9 -16 16 -68 12
-68 -6 0 -6 -11 0 -25 13 -21 20 -25 21 -25 6 0 -16 -2 -16 -27 -2 -16 8 -50
25 -78 38 -57 26 -185 107 -185 116 0 8 -92 48 -102 44 -5 -1 -8 3 -8 8 0 6
-7 10 -15 10 -8 0 -15 5 -15 12 0 13 -131 140 -138 133 -3 -2 26 -39 64 -81
38 -41 76 -85 83 -97 15 -22 101 -128 111 -137 3 -3 16 -20 29 -37 12 -18 28
-33 34 -33 7 0 22 -8 34 -18 l23 -17 -36 -37 c-23 -25 -44 -38 -61 -38 -16 0
-27 -7 -30 -20 -3 -11 -14 -20 -24 -20 -21 0 -99 48 -99 61 0 4 -53 43 -117
87 -202 135 -213 143 -213 152 0 4 -8 11 -17 14 -60 22 -142 98 -85 80 9 -4 2
3 -16 15 -18 12 -36 21 -40 21 -4 0 -8 10 -9 21 -2 28 -12 37 -22 21 -6 -10
-38 11 -117 74 -60 48 -133 109 -163 136 l-53 49 -165 -2 -164 -1 37 -40 c26
-29 33 -43 25 -51 -6 -6 -11 -19 -11 -28 0 -24 -98 -33 -122 -11 -10 8 -18 21
-18 29 0 8 -6 13 -12 12 -36 -4 -46 3 -58 46 l-13 45 -93 0 c-52 0 -94 -2 -94
-5 0 -3 12 -10 28 -16 15 -7 22 -13 14 -16 -9 -3 -5 -14 13 -35 30 -36 31 -51
4 -94 -19 -31 -30 -39 -52 -35 -5 1 -6 -3 -2 -9 8 -12 -36 -30 -75 -30 -19 0
-37 10 -58 35 -57 64 -52 144 12 185 l31 20 -272 0 c-241 0 -273 -2 -273 -16
0 -8 -4 -13 -9 -10 -5 3 -12 -5 -15 -19 -4 -14 -11 -25 -16 -25 -6 0 -10 -8
-11 -17 0 -11 -3 -13 -6 -5 -2 6 -9 12 -15 12 -12 0 -29 17 -52 53 -10 15 -26
27 -36 27 -11 0 -20 -10 -23 -27 -3 -17 -18 -35 -37 -47 -31 -18 -61 -16 -136
10 -18 6 -18 6 1 -9 19 -14 19 -15 -3 -13 -12 0 -22 -2 -22 -6 -1 -25 1 -29
10 -23 6 3 10 -3 10 -15 0 -11 -8 -24 -17 -27 -10 -4 -24 -12 -30 -19 -7 -7
-22 -10 -33 -7 -12 3 -31 -4 -50 -20 -31 -26 -79 -32 -110 -12 -8 5 -34 10
-57 11 -39 3 -45 0 -58 -27 -18 -33 -44 -38 -52 -10 -8 31 -30 33 -38 4 -7
-29 7 -43 34 -36 13 3 17 -3 19 -29 2 -26 -6 -42 -38 -76 -21 -24 -39 -47 -38
-50 5 -18 -13 -73 -22 -67 -5 3 -10 2 -10 -4 0 -12 32 -31 53 -31 10 0 13 8 9
26 -4 22 -2 25 19 22 16 -2 24 -10 24 -23 0 -29 38 -31 64 -4 l21 23 -21 23
c-12 12 -37 27 -55 33 -33 11 -34 12 -19 40 16 31 48 54 59 43 3 -3 6 -14 6
-24 0 -15 4 -14 28 8 37 35 88 55 122 48 42 -9 75 -50 72 -88 l-2 -32 14 30
c7 17 25 41 39 53 25 23 25 24 6 43 -12 12 -19 33 -19 58 0 34 3 38 20 34 11
-3 20 -10 20 -15 0 -5 10 -6 21 -3 15 5 19 4 14 -4 -4 -7 -2 -18 4 -25 6 -7
12 -23 14 -37 3 -16 12 -25 26 -27 12 -2 24 -9 26 -15 2 -7 9 -33 16 -59 12
-45 14 -46 31 -31 10 9 40 18 68 21 47 4 52 3 89 -35 30 -30 38 -45 37 -68 -4
-40 -15 -65 -31 -65 -7 0 -15 -9 -18 -20 -3 -11 -12 -20 -20 -20 -8 0 -17 -7
-21 -15 -7 -19 -56 -19 -82 0 -28 21 -34 18 -34 -17 0 -25 -10 -42 -50 -79
-51 -48 -58 -59 -39 -59 6 0 17 -6 24 -12 34 -31 43 -36 49 -31 3 4 6 -4 6
-16 0 -12 -4 -20 -8 -17 -5 3 -17 -11 -28 -31 -10 -20 -28 -41 -39 -47 -11 -6
-24 -17 -31 -25 -24 -31 -109 29 -120 85 -9 47 1 79 34 109 15 14 22 25 15 25
-6 0 -25 11 -41 25 -23 19 -37 24 -61 19 -27 -6 -45 -24 -23 -24 5 0 18 -8 29
-18 19 -16 20 -21 8 -56 -15 -43 -14 -42 -41 -50 -17 -5 -25 1 -45 39 -23 43
-23 45 -6 74 17 28 17 30 -2 36 -10 3 -26 14 -36 25 -17 19 -18 19 -43 0 -15
-12 -40 -20 -63 -20 -39 0 -39 0 -39 -39 0 -52 -44 -101 -90 -101 -18 0 -45
-11 -64 -25 -18 -14 -41 -25 -51 -25 -14 0 -16 -6 -11 -31 3 -17 6 -38 6 -46
0 -11 10 -9 45 10 25 14 47 21 50 16 10 -15 25 -10 23 9 -3 34 2 53 12 47 6
-3 10 -1 10 6 0 8 4 9 13 0 9 -7 17 -7 24 0 16 16 60 0 72 -29 10 -21 14 -23
22 -11 6 10 9 6 9 -17 0 -18 -7 -37 -17 -45 -15 -11 -16 -11 -5 1 6 8 12 21
12 30 0 10 -3 11 -8 3 -4 -7 -27 -13 -50 -14 -24 -2 -46 -7 -48 -11 -3 -4 -1
-8 4 -8 6 0 15 -14 21 -32 9 -26 8 -38 -9 -71 -18 -33 -19 -43 -9 -72 17 -45
7 -62 -46 -85 -43 -18 -45 -21 -40 -51 5 -29 4 -31 -11 -18 -14 12 -16 11 -13
-6 2 -11 14 -24 26 -30 17 -7 21 -15 16 -39 -6 -28 -5 -29 23 -21 42 13 103 8
130 -10 93 -60 45 -215 -67 -215 -21 0 -39 -6 -42 -12 -7 -19 -62 13 -62 36 0
22 -30 40 -56 33 -13 -4 -25 2 -35 18 -9 14 -24 27 -33 30 -10 3 -25 24 -34
46 -15 39 -16 40 -34 22 -11 -10 -15 -19 -11 -21 19 -8 5 -22 -22 -22 -16 0
-30 5 -30 10 0 6 -7 10 -16 10 -9 0 -18 8 -21 18 -3 15 -15 19 -51 21 -52 2
-66 9 -33 18 13 3 20 11 17 19 -3 7 2 18 10 25 12 9 20 9 42 -2 15 -8 30 -18
33 -22 3 -4 24 -10 47 -13 l42 -5 0 38 c0 45 -25 71 -85 92 -37 13 -40 12 -53
-8 -8 -11 -21 -21 -29 -21 -8 0 -12 -4 -9 -9 7 -10 -3 -41 -13 -41 -3 0 -18
11 -34 24 -24 20 -26 27 -17 50 8 21 15 25 32 21 18 -4 26 0 35 21 15 32 11
40 -14 29 -10 -5 -29 -10 -43 -11 -14 -2 -26 -8 -28 -14 -2 -5 -12 -10 -22
-10 -25 0 -34 -16 -13 -24 15 -6 15 -8 0 -23 -8 -9 -33 -19 -54 -24 -32 -7
-29 -7 24 -6 35 1 63 -1 63 -6 0 -4 11 -19 26 -32 20 -19 23 -26 12 -30 -7 -3
-13 -17 -12 -33 0 -15 -4 -37 -9 -49 -8 -18 -6 -27 7 -42 17 -18 12 -56 -6
-45 -6 4 -8 -4 -6 -17 2 -13 -4 -29 -12 -36 -13 -10 -13 -13 3 -30 23 -26 22
-33 -6 -33 -27 0 -49 -31 -36 -51 7 -12 12 -12 30 -1 31 19 34 8 6 -22 l-24
-25 -20 22 c-10 13 -18 28 -15 35 2 7 -1 12 -6 12 -6 0 -12 -5 -14 -11 -2 -7
-17 -8 -41 -4 -26 5 -37 12 -33 21 3 7 -6 17 -22 23 -17 6 -21 10 -9 10 9 1
17 6 17 11 0 6 5 10 11 10 6 0 18 7 27 16 14 15 14 17 -1 26 -26 14 -20 33 15
51 23 12 27 17 13 16 -11 -1 -29 -1 -40 0 -31 2 3 21 40 21 l30 1 -25 11 c-23
11 -24 12 -4 15 16 3 20 10 16 33 -2 17 -8 30 -12 30 -5 0 -7 12 -6 27 3 25
-12 55 -24 48 -3 -2 -12 0 -20 5 -11 7 -9 13 11 29 18 15 20 20 8 21 -10 0
-15 8 -15 23 1 20 -3 22 -44 19 -24 -2 -47 -7 -50 -12 -3 -5 -19 -10 -35 -12
-26 -3 -30 0 -27 20 2 19 -2 22 -18 17 -15 -5 -18 -3 -14 9 3 9 10 16 15 16 5
0 9 4 9 10 0 5 -8 6 -17 3 -17 -7 -17 -5 -2 17 19 28 48 38 59 20 15 -24 38
-4 32 27 -5 26 -4 27 12 14 14 -12 19 -12 26 -2 4 8 13 10 19 7 14 -9 14 -26
1 -26 -17 0 -51 -40 -44 -51 3 -6 -8 -3 -25 5 -17 9 -31 13 -32 9 0 -5 -2 -18
-3 -31 -3 -29 8 -36 24 -17 14 17 60 21 60 5 0 -5 5 -10 10 -10 14 0 12 38 -2
43 -7 2 1 4 17 4 17 1 34 -4 38 -11 5 -6 5 0 1 14 -4 14 -7 32 -7 40 0 8 -11
25 -25 36 -25 22 -23 48 2 38 8 -3 16 4 19 16 3 12 10 19 16 15 6 -3 11 2 11
13 0 30 -59 26 -66 -5 -4 -12 -10 -23 -16 -23 -14 0 2 43 21 57 9 7 24 13 34
13 10 0 16 4 12 10 -3 5 -12 7 -20 3 -8 -3 -15 0 -15 6 0 6 4 11 9 11 4 0 7
11 6 25 -2 14 1 25 6 25 5 0 9 7 9 15 0 9 7 18 15 21 10 4 13 13 9 27 -5 16
-3 19 10 14 9 -4 15 -3 15 1 -4 25 3 30 34 25 36 -5 42 -1 100 83 19 28 38 67
41 85 3 18 12 39 21 45 17 13 13 30 -24 104 -9 18 7 60 36 94 12 14 18 26 13
28 -14 4 5 64 19 61 11 -3 15 8 12 40 -1 9 3 17 8 17 6 0 11 -9 11 -20 0 -13
5 -18 16 -13 8 3 13 12 10 19 -20 49 -20 49 -5 37 12 -10 17 -8 28 8 7 12 10
23 8 25 -7 7 -57 -18 -57 -28 0 -4 -7 -8 -15 -8 -9 0 -15 -9 -15 -25 0 -15 -8
-29 -21 -36 -17 -9 -20 -8 -13 3 15 22 11 68 -6 68 -52 -1 -118 -41 -148 -92
-9 -16 -22 -28 -29 -28 -18 0 -16 7 11 43 13 18 36 59 50 92 15 33 31 68 37
78 5 10 7 22 4 27 -3 6 1 7 10 3 13 -4 15 -14 10 -41 -6 -31 -5 -34 8 -24 12
10 16 9 21 -3 3 -8 12 -15 21 -15 21 0 19 13 -5 28 -18 11 -19 19 -13 87 l6
75 -44 0 c-25 -1 -49 -7 -56 -15z m2507 -69 c13 -15 20 -31 16 -41 -3 -9 -2
-13 4 -10 15 9 11 -8 -7 -30 l-16 -20 7 20 c7 19 6 19 -10 3 -17 -17 -17 -18
0 -37 17 -19 18 -19 43 5 15 14 32 23 39 20 7 -3 14 -1 16 4 6 16 60 20 82 5
11 -8 17 -15 12 -15 -4 0 4 -14 18 -31 31 -37 32 -43 5 -70 -26 -26 -20 -43
17 -46 92 -8 112 -11 132 -22 36 -19 55 -57 48 -95 -6 -29 -3 -36 21 -51 24
-16 29 -17 57 -2 31 16 52 20 94 18 23 -1 79 -48 98 -83 9 -17 12 -17 49 2 44
22 61 20 116 -19 38 -26 64 -65 54 -81 -9 -14 17 -24 66 -24 41 -1 54 -6 84
-36 43 -40 62 -80 44 -90 -7 -5 -5 -19 10 -48 27 -52 26 -68 0 -75 -17 -5 -20
-10 -14 -29 16 -53 17 -78 3 -78 -7 0 -22 -13 -31 -30 -19 -32 -36 -37 -68
-20 -13 7 -19 7 -19 0 0 -18 -70 -88 -95 -94 -37 -9 -30 -22 18 -32 41 -9 42
-10 44 -49 1 -22 -1 -32 -4 -22 -5 18 -6 18 -19 -2 -9 -12 -21 -21 -29 -21 -8
0 -18 -7 -23 -15 -5 -11 -26 -16 -61 -18 -45 -2 -56 2 -72 22 -29 36 -23 62
22 94 21 15 45 27 51 27 7 0 -3 11 -22 25 -19 14 -37 31 -41 37 -14 22 -57 19
-64 -3 -4 -12 -20 -25 -37 -31 -18 -7 -27 -15 -24 -24 8 -22 -41 -17 -64 6
-11 11 -20 27 -20 35 0 8 -7 15 -16 15 -8 0 -13 4 -9 9 4 7 -45 -14 -84 -36
-2 -1 2 -23 9 -48 14 -51 3 -95 -24 -95 -8 0 -19 -6 -23 -14 -4 -7 -23 -21
-41 -30 -19 -10 -32 -23 -30 -33 4 -22 -28 -41 -43 -26 -9 9 -9 16 0 27 10 12
8 17 -11 27 -97 52 -105 162 -14 209 41 22 41 23 41 79 0 31 3 68 8 83 6 22 4
26 -7 22 -11 -4 -18 6 -25 34 -13 47 -33 66 -61 57 -27 -8 -25 -19 4 -33 62
-28 76 -134 25 -189 -35 -37 -82 -55 -114 -43 -36 14 -55 13 -55 -3 0 -18 -35
-58 -44 -50 -3 3 -17 1 -30 -7 -14 -7 -31 -10 -39 -7 -7 3 -20 1 -27 -3 -19
-12 -76 18 -89 47 -17 37 -13 64 14 103 29 42 93 81 134 82 23 1 33 8 41 28 6
15 22 33 35 40 l24 13 -35 32 c-19 18 -34 40 -34 49 0 19 -7 20 -40 1 -79 -45
-180 14 -180 104 0 36 17 83 33 93 8 5 6 8 -5 8 -10 0 -18 5 -18 10 0 6 -16
18 -35 27 -35 17 -43 35 -43 106 0 31 39 58 88 59 22 1 26 4 17 13 -7 6 -21
28 -32 48 -11 20 -23 37 -27 37 -21 0 -4 42 25 65 37 27 94 35 138 17 26 -10
26 -10 19 24 -5 20 -4 37 2 40 5 3 9 25 8 48 -3 67 2 71 40 32z m-939 -32 c23
-28 97 -74 119 -74 36 0 101 -40 122 -76 22 -37 22 -37 72 9 21 18 36 22 36 9
0 -4 16 -8 36 -9 49 -1 113 -45 110 -75 -4 -34 -29 -81 -46 -86 -12 -4 -11 0
2 21 15 22 15 27 3 37 -12 10 -16 9 -21 -4 -3 -9 -10 -13 -15 -10 -5 3 -9 -4
-9 -15 0 -10 -6 -22 -12 -25 -9 -3 -8 -9 6 -20 18 -14 17 -15 -9 -22 -15 -4
-44 -2 -65 5 -38 11 -56 36 -62 91 -3 24 -4 23 -25 -12 -12 -21 -37 -47 -55
-58 -29 -17 -30 -20 -11 -20 12 0 33 5 47 11 29 14 52 0 67 -39 9 -24 -11 -69
-24 -55 -4 3 -22 -11 -40 -31 -28 -30 -39 -36 -60 -31 -41 11 -60 40 -65 100
-4 55 -8 59 -49 58 -7 -1 -10 4 -6 10 4 7 0 8 -12 3 -13 -4 -27 2 -47 21 -35
33 -39 92 -8 123 27 27 25 36 -10 77 -31 35 -38 71 -18 91 16 16 33 15 49 -4z
m641 -71 c10 -9 18 -22 18 -30 0 -8 5 -11 12 -7 7 5 9 2 5 -9 -3 -9 -1 -17 4
-19 5 -2 -2 -26 -16 -53 -13 -28 -27 -49 -30 -47 -3 2 -20 0 -39 -3 -47 -9
-86 17 -86 58 0 17 7 38 15 47 8 9 16 27 17 41 5 39 66 53 100 22z m3613 -74
c-5 -22 0 -33 27 -58 24 -22 39 -29 55 -25 14 4 23 2 23 -5 0 -6 -5 -11 -12
-11 -6 0 -8 -3 -4 -7 4 -5 14 1 22 11 13 18 14 18 14 2 0 -9 5 -14 10 -11 6 3
13 -1 16 -9 3 -9 9 -14 14 -11 4 2 7 -9 8 -26 0 -17 -5 -32 -13 -35 -7 -3 -16
-16 -19 -30 -4 -13 -13 -24 -22 -24 -8 0 -19 -10 -24 -22 -5 -14 -9 -17 -9 -8
-1 9 -11 16 -26 18 -18 1 -23 -2 -19 -13 4 -10 0 -15 -11 -15 -9 0 -14 4 -10
9 3 6 -3 15 -14 21 -14 7 -22 7 -26 -1 -4 -6 -13 -8 -21 -5 -8 3 -14 2 -14 -3
0 -4 -11 -13 -24 -19 -19 -8 -26 -8 -30 1 -2 7 -5 4 -5 -6 -1 -10 -6 -15 -12
-12 -6 4 -8 14 -4 22 5 13 3 14 -10 3 -12 -10 -13 -15 -3 -21 9 -6 8 -12 -5
-26 -16 -18 -14 -20 41 -45 76 -35 145 -86 136 -100 -4 -7 -3 -8 4 -4 7 4 12
2 12 -4 0 -6 4 -9 8 -6 4 2 14 -4 21 -16 10 -16 10 -19 -1 -13 -7 3 -4 -1 6
-9 11 -9 17 -16 13 -16 -4 0 -2 -10 5 -22 14 -27 14 -26 27 -103 14 -76 14
-152 1 -160 -5 -3 -10 -16 -10 -29 0 -19 -6 -23 -32 -24 -34 -1 -73 -31 -50
-39 6 -3 12 -10 12 -18 0 -13 -24 -24 -90 -43 -19 -5 -27 -10 -17 -11 9 -1 17
-6 17 -12 0 -6 -6 -9 -12 -6 -7 2 -26 0 -41 -4 -18 -5 -36 -4 -47 4 -25 15
-37 2 -16 -18 9 -9 16 -23 16 -30 0 -7 6 -20 13 -27 13 -13 47 -110 47 -134 0
-8 -6 -11 -15 -8 -19 8 -19 -5 0 -47 10 -24 14 -28 15 -14 0 17 2 17 10 5 12
-19 13 -83 1 -75 -6 3 -14 -2 -20 -12 -8 -16 -11 -15 -31 7 l-21 25 6 -30 c11
-58 11 -60 -11 -58 -19 2 -21 -2 -19 -30 2 -18 3 -38 4 -46 1 -8 7 -11 18 -7
24 10 34 -14 18 -45 -11 -21 -19 -25 -41 -21 -25 5 -26 3 -22 -31 2 -20 0 -33
-4 -31 -4 3 -8 11 -8 19 0 7 -9 16 -19 20 -20 6 -36 45 -19 45 7 0 7 4 1 13
-5 6 -9 29 -8 50 1 28 -2 37 -12 33 -16 -6 -17 17 -3 44 6 12 16 17 26 13 14
-5 15 -3 5 15 -14 26 -27 28 -35 5 -5 -13 -9 -14 -19 -4 -9 10 -8 15 6 25 25
19 22 26 -30 79 -62 64 -83 75 -90 48 -3 -12 -10 -18 -16 -14 -33 20 -56 4
-47 -32 15 -62 17 -75 10 -75 -4 0 -10 7 -14 15 -3 8 -12 15 -21 15 -8 0 -15
-7 -15 -15 0 -8 -4 -15 -10 -15 -6 0 -6 -9 0 -26 13 -34 13 -34 -10 -34 -11 0
-20 -4 -20 -10 0 -5 11 -10 25 -10 26 0 30 -6 16 -29 -7 -10 -15 -6 -40 19
-17 18 -31 37 -31 41 0 18 -15 8 -26 -16 -10 -21 -9 -24 9 -27 11 -2 22 -9 25
-16 2 -8 -2 -10 -13 -6 -11 5 -16 2 -15 -7 5 -35 0 -41 -18 -19 l-17 21 -28
-30 c-28 -32 -33 -63 -18 -104 7 -18 6 -30 -3 -43 -14 -19 -7 -64 15 -90 17
-21 26 -17 33 16 7 36 20 38 41 6 18 -28 12 -49 -21 -71 -28 -18 -31 -10 -7
17 17 19 16 19 -9 13 -14 -4 -29 -2 -32 4 -4 5 -13 8 -20 5 -10 -4 -16 7 -22
38 -5 24 -8 51 -6 61 3 23 -15 22 -30 -3 -7 -11 -19 -20 -26 -20 -7 0 -10 4
-7 10 3 6 -1 7 -9 4 -20 -8 -21 -24 -1 -25 8 -1 20 -2 27 -3 6 0 13 -7 16 -15
3 -9 -1 -11 -17 -6 -14 4 -21 2 -21 -7 0 -7 -9 -19 -20 -26 -11 -7 -20 -8 -20
-3 0 19 -52 71 -71 71 -10 0 -19 5 -19 10 0 6 -7 10 -15 10 -9 0 -15 9 -15 24
0 14 -4 27 -9 30 -4 3 -6 17 -4 31 7 36 -5 76 -22 73 -8 -2 -21 6 -29 17 -15
19 -15 19 -16 -7 0 -16 -4 -28 -10 -28 -5 0 -8 -13 -6 -29 3 -27 1 -29 -20
-20 -24 8 -34 -3 -14 -16 6 -3 10 -10 10 -15 0 -13 -31 -5 -40 10 -7 11 -11 9
-18 -10 -6 -16 -6 -29 1 -38 7 -9 7 -16 -1 -24 -7 -7 -12 -20 -12 -29 0 -10
-5 -21 -10 -24 -15 -9 -42 62 -45 115 -4 81 -12 97 -46 92 -16 -2 -29 -9 -29
-14 0 -7 -5 -6 -13 1 -8 6 -12 23 -9 41 5 36 -11 60 -36 53 -16 -4 -18 1 -12
54 4 32 5 64 2 71 -2 6 1 12 8 12 6 0 9 3 7 8 -2 4 4 15 15 25 10 9 18 13 18
9 0 -9 65 -6 80 3 18 11 10 27 -10 22 -15 -4 -20 0 -20 14 0 11 -7 19 -16 19
-13 0 -11 6 10 25 34 32 33 37 -9 29 -30 -5 -34 -4 -29 10 4 11 1 16 -10 16
-8 0 -19 12 -22 26 -5 20 0 31 24 54 17 15 42 30 56 34 14 3 26 11 26 17 0 6
-4 7 -10 4 -5 -3 -10 -4 -10 -1 0 3 16 13 36 22 20 9 39 27 44 38 4 12 21 27
36 35 16 7 37 17 47 23 10 5 22 6 27 3 6 -4 10 1 10 9 0 9 5 16 11 16 5 0 8 4
4 9 -3 5 -1 12 5 16 5 3 10 -1 10 -9 0 -26 39 -18 72 14 35 35 29 34 64 16 25
-13 29 -13 40 2 8 9 14 13 14 9 0 -5 12 1 27 12 27 22 46 20 25 -1 -15 -15
-16 -28 -2 -28 6 0 10 6 10 13 0 7 9 18 20 25 12 7 18 17 15 22 -13 20 25 9
39 -12 11 -15 12 -26 5 -40 -9 -17 -8 -17 27 -1 28 14 32 19 19 22 -21 4 -45
25 -45 39 0 12 -49 22 -104 22 -44 0 -186 -30 -251 -52 -24 -9 -55 -12 -77 -8
-28 5 -35 3 -31 -7 3 -7 9 -13 14 -13 22 0 5 -17 -38 -40 -27 -14 -54 -31 -62
-38 -7 -7 -26 -11 -42 -8 -32 5 -48 -8 -23 -18 13 -5 14 -9 4 -21 -7 -8 -19
-15 -27 -15 -8 0 -11 -4 -8 -10 3 -5 -12 -35 -34 -67 -23 -31 -41 -66 -41 -78
0 -12 -11 -32 -26 -45 -52 -50 -90 -178 -80 -268 4 -31 10 -95 15 -142 5 -47
17 -118 26 -158 21 -87 15 -138 -23 -211 -37 -68 -92 -124 -150 -152 -26 -13
-50 -27 -54 -33 -3 -5 -12 -11 -20 -12 -7 -1 -33 -8 -58 -15 -81 -23 -201 -20
-279 6 -38 13 -79 30 -91 37 -25 15 -74 85 -95 134 -20 48 -38 51 -77 15 -24
-22 -35 -27 -45 -19 -7 6 -13 16 -13 22 0 7 4 6 9 -2 6 -10 17 -5 44 22 l37
35 -41 76 c-22 41 -45 75 -50 75 -5 0 -9 5 -9 12 0 21 51 -36 83 -91 l31 -54
12 60 c27 135 144 298 249 347 28 14 81 30 116 35 72 12 93 30 79 67 -10 26
-4 76 13 109 14 28 36 43 75 50 36 7 65 44 82 107 8 28 7 43 -2 57 -12 20 -13
20 -43 -9 l-30 -30 -45 30 c-25 17 -42 30 -37 30 4 0 -5 13 -21 29 -15 16 -48
59 -72 95 -48 71 -60 79 -60 44 0 -27 -35 -88 -50 -88 -16 0 -12 -20 5 -26 9
-4 26 5 41 21 23 25 27 26 41 12 15 -15 14 -16 -8 -11 -22 6 -22 4 7 -20 24
-19 30 -31 27 -51 -5 -21 -14 -28 -43 -27 -3 0 -15 3 -27 6 -18 6 -20 4 -16
-14 3 -11 1 -20 -4 -20 -9 0 -39 -69 -35 -82 1 -5 -2 -8 -7 -8 -5 0 -8 -8 -7
-17 1 -14 -6 -17 -29 -16 -16 1 -31 7 -33 13 -2 5 -15 10 -29 10 -26 0 -26 0
-7 -21 19 -22 19 -22 -3 -10 -13 6 -23 21 -23 32 0 13 4 18 12 13 7 -5 8 -3 4
5 -5 7 -13 10 -20 8 -8 -3 -12 15 -14 59 -1 62 0 64 34 90 39 30 39 39 1 25
-29 -11 -51 4 -79 56 -30 53 -16 138 20 125 7 -2 30 8 51 22 21 15 55 29 75
33 42 7 41 6 19 43 -13 23 -15 36 -7 62 7 23 6 43 -3 68 -15 44 -16 86 -2 112
11 20 11 20 35 -3 13 -12 24 -27 24 -33 0 -5 20 -35 44 -65 24 -31 61 -84 82
-118 37 -58 94 -116 94 -95 0 5 10 13 23 17 13 4 17 8 9 12 -12 5 50 54 74 57
7 1 19 8 28 15 12 10 37 12 103 6 255 -20 431 -23 404 -6 -7 5 32 11 86 14
102 5 131 14 266 82 145 74 212 119 201 137 -3 4 -10 5 -16 2 -7 -4 -8 -2 -4
4 8 14 -14 52 -31 52 -6 0 -15 4 -18 10 -3 5 0 7 9 4 17 -6 41 26 52 69 3 16
9 25 13 20 11 -14 31 -13 31 2 0 8 4 15 10 15 5 0 7 8 3 18 -5 14 -3 13 10 -3
16 -20 16 -20 39 3 18 18 19 22 6 22 -9 0 -23 3 -31 6 -9 3 -25 -4 -36 -15
-17 -17 -21 -18 -21 -6 0 9 8 19 18 22 9 4 23 13 30 20 7 6 19 10 27 7 8 -4
23 -3 32 0 15 6 15 8 3 16 -13 8 -12 10 3 10 14 0 16 5 11 27 -6 23 -4 25 15
20 11 -3 21 -2 21 2 0 4 10 8 22 8 13 1 24 7 26 13 3 8 8 7 18 -1 10 -8 17 -7
29 5 23 23 35 20 35 -8 0 -14 4 -27 9 -30 5 -4 8 5 7 18 -2 14 3 27 10 30 9 3
11 0 7 -12 -6 -15 -5 -16 12 -2 11 8 30 26 42 40 l24 25 -21 -37 c-12 -20 -27
-39 -35 -42 -16 -6 -21 -36 -6 -36 5 0 18 -3 28 -7 16 -6 17 -5 3 12 -9 11
-10 16 -2 11 7 -4 12 -1 12 8 0 9 7 16 15 16 9 0 12 6 8 17 -4 10 -2 14 4 10
6 -4 13 -1 16 5 2 7 8 10 12 6 4 -4 2 -14 -4 -22 -8 -10 -9 -16 -1 -21 6 -4
16 7 24 25 27 66 105 83 91 19z m-4380 -139 c-3 -5 0 -8 7 -5 40 16 43 -105 2
-131 -20 -13 -27 -14 -51 -2 -58 28 -67 104 -15 132 31 17 66 21 57 6z m756
-139 c31 -32 36 -64 17 -106 -11 -24 -19 -29 -46 -26 -8 1 -19 -5 -25 -13 -18
-23 -88 -45 -114 -35 -29 10 -54 59 -46 90 9 34 49 96 70 108 10 6 40 11 66
11 41 0 53 -5 78 -29z m-575 -7 c26 -18 54 -71 60 -114 2 -20 -7 -32 -41 -57
-24 -18 -50 -33 -58 -33 -7 0 -18 -5 -24 -11 -8 -8 -17 -7 -34 5 -28 19 -39
20 -39 4 0 -7 -5 -30 -10 -50 -9 -29 -19 -41 -56 -58 -58 -29 -105 -21 -151
25 -48 48 -46 97 6 156 34 39 43 44 80 43 44 -2 101 -21 101 -35 0 -5 4 -9 10
-9 5 0 9 15 8 33 -3 89 79 145 148 101z m-896 -474 c28 -15 60 -77 60 -117 0
-20 -3 -33 -7 -30 -9 10 -33 -13 -33 -33 0 -21 -40 -40 -86 -40 -26 0 -44 8
-65 29 -24 25 -29 38 -29 80 0 52 18 83 65 109 25 14 70 15 95 2z m499 -505
c27 -122 30 -358 6 -424 -3 -9 0 -11 10 -7 28 11 15 -13 -26 -46 -39 -31 -86
-104 -75 -115 3 -3 34 0 69 7 55 11 68 11 96 -3 17 -8 56 -19 87 -23 30 -3 61
-13 69 -20 16 -16 29 -19 20 -4 -4 6 11 1 32 -11 69 -40 88 -49 101 -49 6 0
12 -4 12 -9 0 -5 9 -13 21 -16 38 -12 87 -71 124 -147 32 -68 35 -81 27 -115
-5 -21 -9 -55 -8 -75 2 -28 -3 -43 -20 -59 -13 -12 -29 -19 -37 -16 -7 3 -19
-4 -25 -14 -7 -10 -23 -19 -35 -19 -23 0 -36 -17 -51 -63 -3 -10 -10 -16 -15
-13 -13 9 -19 -26 -8 -45 6 -9 6 -28 2 -45 -5 -16 -7 -33 -6 -38 2 -9 -18 -26
-32 -26 -5 0 -5 5 -1 11 10 17 -17 29 -33 14 -22 -22 -121 -8 -161 22 -18 14
-36 22 -39 19 -3 -3 -12 -1 -20 6 -10 8 -17 8 -25 0 -7 -7 -20 -12 -30 -12
-20 0 -23 -11 -7 -27 16 -16 -15 -23 -71 -17 -25 3 -62 6 -82 8 -20 2 -41 7
-48 11 -6 3 -26 9 -45 11 -27 3 -35 1 -35 -12 0 -22 -23 -13 -35 14 -5 12 -13
22 -17 22 -16 0 -68 53 -68 70 0 11 -8 25 -18 32 -9 7 -18 20 -20 28 -2 8 -8
21 -13 30 -7 10 -9 -1 -6 -38 4 -57 -6 -80 -40 -86 -22 -5 -39 17 -27 35 3 5
-3 9 -13 9 -11 0 -24 5 -31 12 -9 9 -12 9 -12 1 0 -7 9 -15 20 -18 11 -3 20
-13 20 -20 0 -11 -6 -12 -25 -5 -18 7 -25 6 -25 -2 0 -7 -6 -3 -14 8 -13 17
-13 20 2 26 16 6 15 7 0 7 -10 1 -18 8 -18 17 0 10 -6 14 -14 11 -8 -3 -31 -1
-50 4 -29 8 -36 15 -36 34 0 14 -9 34 -20 45 -13 13 -16 22 -8 26 6 4 -3 12
-21 20 -31 13 -39 28 -21 39 17 11 11 23 -17 33 l-28 10 30 1 c29 1 29 1 8 16
-15 10 -19 23 -17 45 3 27 1 30 -26 30 -18 0 -29 5 -27 12 2 15 42 49 60 52 6
1 32 11 57 23 51 25 121 37 195 33 28 -1 81 -3 119 -4 l69 -1 33 48 c33 47 33
50 18 79 -14 28 -14 31 3 43 17 13 15 15 -24 32 -53 22 -54 30 -6 25 33 -4 36
-3 25 10 -10 13 -10 17 3 21 8 4 12 13 9 22 -4 10 0 15 11 15 11 0 15 5 11 15
-3 8 -1 15 3 15 18 0 21 33 6 50 -11 12 -13 20 -5 25 5 3 8 10 5 15 -3 5 -1
18 5 29 8 15 7 23 -3 33 -8 7 -12 20 -9 30 2 10 -1 18 -7 18 -6 0 -11 5 -11
10 0 6 7 10 15 10 8 0 23 15 32 33 10 17 24 32 32 32 8 0 16 12 18 28 2 16 13
38 24 50 11 12 18 28 17 37 -3 25 34 92 54 98 12 3 17 10 14 19 -3 8 2 25 12
38 l17 23 16 -31 c9 -18 21 -54 28 -82z m4295 -277 c9 -12 16 -30 16 -39 0 -9
9 -23 20 -30 14 -10 21 -29 24 -70 3 -31 8 -63 12 -72 3 -10 1 -17 -5 -17 -6
0 -11 9 -11 20 0 11 -7 23 -15 26 -8 4 -15 16 -15 28 -1 19 -2 19 -18 -6 -19
-31 -30 -35 -38 -13 -4 8 -12 15 -20 15 -16 0 -18 9 -5 29 7 11 11 10 20 -5 6
-11 11 -14 11 -9 0 6 -7 21 -16 33 -8 12 -12 27 -9 32 3 5 -5 21 -19 34 -35
32 -33 38 10 30 34 -6 36 -5 29 15 -8 28 10 27 29 -1z m-3075 -38 c10 -5 26
-21 35 -35 17 -25 17 -28 0 -46 -9 -10 -23 -19 -31 -19 -35 0 8 -79 44 -81 10
0 13 -3 6 -6 -7 -2 -13 -9 -13 -14 0 -6 5 -7 10 -4 7 4 9 -2 5 -18 -9 -34 94
-157 132 -157 23 0 25 -3 20 -29 -5 -25 -1 -34 26 -57 18 -15 47 -33 65 -41
17 -7 32 -18 32 -24 0 -8 4 -8 14 0 10 9 16 9 21 1 4 -6 -1 -17 -11 -24 -22
-17 -34 -10 -107 57 -28 26 -54 47 -59 47 -11 0 -22 -68 -21 -125 0 -43 -1
-46 -8 -21 -5 17 -4 62 2 104 l10 73 -80 78 c-45 42 -81 85 -81 94 0 9 -16 27
-35 39 -37 25 -44 38 -20 38 17 0 21 35 5 45 -5 3 -10 15 -10 25 0 14 -5 18
-16 13 -11 -4 -23 2 -35 18 -26 34 -24 49 10 49 16 0 34 7 41 15 15 17 25 19
49 5z m549 -96 c22 -15 23 -20 7 -109 -2 -11 -4 -23 -4 -27 -1 -4 -28 -6 -62
-4 -61 3 -84 16 -74 44 3 8 5 20 5 28 0 8 11 19 24 25 14 7 27 22 30 35 7 28
40 32 74 8z m193 -429 c16 -49 29 -111 29 -137 l0 -48 58 -1 c54 -1 128 -16
90 -18 -11 -1 -18 -9 -18 -21 0 -36 -66 -54 -90 -25 -22 26 -35 -1 -33 -68 3
-91 -12 -36 -38 143 -23 158 -40 214 -87 283 -34 49 -44 90 -17 67 12 -10 16
-9 22 5 8 23 42 -50 84 -180z m-373 -134 c15 -16 34 -31 42 -34 8 -3 -1 -6
-20 -6 -22 -1 -42 -8 -53 -21 -20 -23 -42 -27 -33 -5 6 17 -12 19 -64 5 -213
-55 -248 -61 -314 -58 -62 3 -71 7 -97 36 -29 33 -37 66 -19 77 6 3 10 1 10
-5 0 -6 11 -16 25 -22 15 -7 21 -14 15 -18 -20 -12 40 -42 89 -44 90 -5 190
27 275 87 24 17 60 29 109 36 4 0 20 -12 35 -28z m1679 -29 c-9 -9 -17 -30
-19 -47 -2 -22 -9 -31 -25 -33 -13 -2 -23 -10 -23 -18 0 -12 -12 -13 -67 -8
-38 4 -72 11 -78 16 -7 6 -7 9 0 8 26 -5 41 3 75 40 36 39 110 80 110 60 0
-21 18 -9 26 18 7 26 8 26 12 4 2 -13 -3 -31 -11 -40z m-672 -243 c5 -14 0
-31 -14 -50 -12 -15 -21 -30 -21 -33 0 -3 37 -19 109 -47 18 -7 21 -12 12 -23
-10 -12 -19 -10 -59 10 -26 13 -64 35 -84 49 -45 30 -55 20 -38 -40 15 -53 7
-103 -21 -139 -27 -35 -81 -35 -131 -1 -48 33 -56 32 -60 -7 -3 -32 -4 -33
-48 -30 -53 3 -61 9 -77 65 -10 35 -10 45 3 64 19 31 59 30 88 -2 31 -33 36
-32 36 10 0 34 31 75 100 130 65 52 90 62 157 64 34 1 43 -3 48 -20z m-825
-449 c49 -25 58 -42 61 -111 3 -63 -11 -93 -49 -112 -55 -28 -75 -27 -137 6
-51 27 -65 31 -88 23 -24 -9 -37 -6 -77 17 -26 15 -55 27 -64 27 -30 0 -30 30
0 61 26 28 33 30 73 25 37 -5 47 -3 63 17 11 12 28 32 39 45 26 30 122 31 179
2z"/>
<path d="M5262 2287 c-14 -16 11 -57 34 -57 8 0 14 -4 14 -10 0 -13 -6 -13
-30 0 -10 5 -39 12 -64 14 -37 4 -48 1 -56 -14 -7 -13 -6 -21 5 -30 8 -7 12
-16 9 -21 -7 -12 9 -12 22 0 5 4 24 11 42 14 25 5 32 3 32 -9 0 -12 5 -10 20
7 16 20 19 21 20 7 0 -18 11 -23 23 -11 4 3 2 12 -4 19 -9 11 -5 16 16 24 14
5 31 10 36 10 11 0 11 11 1 27 -9 14 -74 43 -95 43 -8 0 -19 -6 -25 -13z"/>
<path d="M8206 3649 c-3 -18 -2 -37 4 -44 6 -7 6 -15 0 -21 -5 -5 -10 -29 -12
-54 l-3 -45 37 -3 c20 -2 42 -10 48 -18 7 -8 18 -14 25 -14 7 0 24 -11 39 -25
31 -29 43 -64 19 -61 -17 3 -34 26 -27 38 11 18 -10 7 -31 -16 -13 -14 -42
-30 -65 -36 -44 -12 -115 -5 -126 11 -3 5 -9 7 -14 4 -4 -3 -6 4 -3 15 4 14 0
20 -11 20 -13 0 -15 -10 -13 -54 2 -43 -1 -52 -12 -48 -9 3 -12 1 -7 -6 4 -6
24 -9 49 -6 107 12 104 13 91 -20 -3 -8 -12 -12 -20 -9 -8 3 -14 0 -14 -6 0
-18 21 -13 54 12 45 34 65 39 103 26 29 -9 37 -8 54 7 15 13 37 18 79 19 49 0
63 -4 80 -23 15 -16 31 -22 54 -20 36 2 96 -19 96 -34 0 -6 6 -8 14 -5 7 3 23
-1 35 -9 12 -8 25 -13 29 -10 5 3 27 0 51 -6 30 -8 51 -22 74 -50 19 -24 39
-38 52 -37 11 1 26 1 32 0 21 -2 44 -48 47 -94 3 -37 11 -53 43 -87 l40 -41 6
31 c5 21 1 39 -9 56 -9 13 -13 24 -10 24 4 0 39 -14 79 -31 71 -31 73 -32 97
-91 15 -36 41 -75 64 -97 22 -20 49 -45 61 -57 16 -14 28 -18 43 -13 27 10 35
26 22 41 -6 7 -24 28 -40 47 -26 30 -27 35 -14 49 9 8 11 18 7 21 -18 11 -25
46 -28 140 -2 52 -8 97 -13 100 -14 10 -22 39 -11 43 8 3 14 18 18 49 2 13 43
49 56 49 8 0 17 -11 21 -25 6 -24 32 -30 27 -6 -2 6 2 11 7 11 6 0 10 -8 10
-17 0 -10 11 -23 25 -30 22 -10 25 -9 25 7 0 10 -6 23 -14 29 -7 6 -12 22 -10
36 1 14 -2 25 -7 25 -16 0 -10 29 11 50 13 13 33 20 57 20 40 0 103 19 103 32
0 4 -8 8 -18 8 -10 0 -26 6 -37 13 -11 7 -35 13 -52 11 -30 -1 -33 1 -33 27 0
16 4 29 8 29 4 0 8 8 9 18 4 46 20 87 34 85 13 -3 39 56 39 87 0 7 -134 10
-395 10 -217 0 -395 -4 -395 -9 0 -4 9 -20 20 -34 24 -30 28 -127 7 -149 -8
-7 -12 -18 -10 -25 10 -28 -19 -93 -53 -121 -49 -40 -88 -47 -124 -22 -27 20
-37 53 -41 148 -1 21 -5 22 -58 19 -31 -1 -61 -6 -68 -10 -17 -11 -122 4 -138
19 -7 8 -19 14 -25 14 -26 0 -79 32 -74 45 3 8 12 11 19 9 7 -3 24 0 37 7 13
7 25 14 28 14 3 1 21 8 41 17 20 9 59 19 86 23 35 4 58 14 74 31 l22 24 -185
0 -185 0 -7 -31z m1094 -389 c11 -11 20 -28 20 -37 0 -23 -86 -103 -111 -103
-25 0 -61 -18 -72 -36 -4 -8 -13 -14 -20 -14 -22 1 -68 46 -70 68 -1 14 -8 22
-19 22 -9 0 -20 5 -23 10 -3 6 0 10 8 10 8 0 30 11 50 24 l36 24 15 -21 c14
-22 15 -22 26 10 9 24 22 35 53 47 58 20 84 19 107 -4z"/>
<path d="M10212 3618 c80 -93 112 -137 143 -198 43 -84 44 -86 40 -106 -2 -11
-6 -40 -9 -66 -5 -39 -3 -46 9 -42 8 4 15 2 15 -2 -1 -14 -26 -44 -36 -44 -6
0 -19 -29 -29 -65 -11 -36 -25 -65 -31 -65 -6 0 -17 -7 -24 -15 -7 -9 -21 -13
-30 -10 -18 6 -80 -24 -106 -50 -12 -12 -12 -15 4 -24 11 -6 24 -6 33 0 7 5
21 9 29 9 11 -1 9 -6 -7 -19 -13 -11 -23 -29 -23 -41 0 -12 -4 -18 -10 -15 -5
3 -10 2 -10 -2 0 -9 -60 -34 -71 -30 -3 1 -13 -6 -23 -15 -9 -9 -23 -15 -31
-11 -11 4 -13 1 -9 -11 4 -10 1 -16 -9 -16 -9 0 -22 -7 -30 -15 -9 -8 -36 -16
-61 -17 -25 0 -46 -5 -46 -10 0 -4 -5 -8 -11 -8 -6 0 -8 9 -4 20 7 23 -13 28
-21 5 -4 -8 -10 -12 -15 -9 -5 3 -9 0 -9 -5 0 -6 -4 -11 -10 -11 -5 0 -19 -9
-30 -20 -11 -11 -29 -20 -41 -20 -11 0 -28 -7 -37 -16 -10 -11 -17 -13 -20 -6
-2 8 -9 8 -22 0 -22 -14 -41 -1 -20 13 11 7 2 9 -30 7 -25 -1 -51 1 -57 5 -6
4 -23 3 -37 -3 -21 -8 -26 -7 -26 6 0 10 -5 12 -12 7 -7 -4 -26 -6 -43 -5 -28
2 -29 1 -8 -9 22 -12 38 -37 28 -47 -2 -3 -11 1 -20 8 -32 27 -159 8 -244 -36
-36 -19 -48 -18 -54 6 -7 29 -23 25 -37 -10 -12 -30 -54 -70 -71 -70 -5 0 -9
7 -9 15 0 19 -5 19 -35 -1 -14 -9 -25 -12 -25 -6 0 6 -3 18 -7 28 -3 10 -2 15
3 12 19 -12 40 19 52 80 12 59 11 66 -18 163 -27 86 -30 105 -20 129 14 35 7
50 -20 43 -16 -4 -20 0 -20 18 0 12 -3 19 -7 16 -3 -4 -12 1 -20 11 -13 15
-13 15 -3 -6 9 -19 8 -23 -12 -31 -22 -8 -22 -9 8 -15 39 -9 61 -45 45 -75 -9
-15 -9 -21 -1 -21 7 0 10 -5 8 -11 -2 -6 -7 -10 -12 -9 -5 1 -14 -9 -20 -22
-15 -30 -66 -38 -66 -11 0 15 -2 16 -10 3 -15 -23 -12 -27 22 -32 21 -4 37 1
50 14 10 10 29 18 42 18 22 0 24 -4 24 -50 1 -49 0 -50 -28 -50 -16 0 -32 -5
-36 -11 -4 -8 0 -9 15 -4 35 11 24 -10 -13 -25 -29 -11 -33 -16 -25 -31 24
-46 -2 -97 -36 -69 -12 10 -15 10 -15 -2 0 -8 5 -19 12 -26 6 -6 8 -15 4 -19
-4 -4 -11 -1 -16 7 -8 12 -13 13 -29 3 -15 -10 -21 -10 -24 0 -4 7 -6 6 -6 -4
-2 -26 -46 -71 -67 -67 -11 2 -20 10 -20 18 -1 8 -2 19 -3 25 0 5 -8 0 -16
-12 -12 -18 -22 -21 -50 -16 -29 5 -34 3 -30 -9 5 -12 0 -14 -21 -10 -39 7
-27 -19 19 -41 21 -9 46 -26 56 -36 18 -18 23 -19 78 -4 60 16 131 12 143 -7
7 -12 74 -7 128 9 19 6 41 6 50 2 10 -5 30 -15 46 -22 38 -18 55 -61 49 -124
-3 -37 1 -60 14 -86 l19 -36 18 69 c12 47 16 84 11 115 -7 48 -3 49 37 15 26
-22 33 4 13 51 -10 24 -13 50 -9 77 6 36 9 40 36 40 36 0 88 -48 88 -82 0 -31
-27 -68 -50 -68 -14 0 -20 -11 -25 -52 -4 -29 -11 -57 -15 -63 -4 -5 -11 -26
-14 -45 -27 -138 -40 -173 -75 -207 -20 -20 -46 -42 -59 -51 -18 -11 -20 -17
-10 -23 10 -7 9 -9 -4 -9 -10 0 -38 -11 -62 -25 -31 -17 -44 -21 -40 -11 4 11
0 13 -15 9 -12 -3 -21 -9 -21 -14 0 -5 -7 -9 -15 -9 -18 0 -18 5 -5 29 8 16 6
17 -16 13 -15 -3 -23 -10 -20 -17 11 -30 -47 -48 -73 -22 -11 10 -12 8 -7 -8
5 -16 -1 -23 -27 -35 -53 -24 -87 -22 -98 7 -5 13 -15 23 -21 22 -32 -4 -38 1
-28 26 11 29 3 33 -16 8 -9 -12 -16 -14 -21 -7 -5 6 -16 13 -25 17 -10 3 -18
12 -18 19 1 16 50 54 50 38 0 -5 5 -10 10 -10 6 0 10 11 10 24 0 34 13 39 49
19 28 -16 43 -53 22 -53 -14 0 -22 -30 -12 -47 6 -12 9 -8 14 16 4 19 13 31
22 31 9 0 15 6 14 13 -4 34 5 53 43 88 31 28 38 39 25 39 -9 0 -17 -5 -17 -11
0 -6 -8 -8 -17 -5 -61 18 -73 18 -73 1 0 -22 -34 -16 -38 8 -2 12 3 17 17 17
12 0 21 4 21 9 0 13 -25 20 -49 14 -12 -3 -21 -1 -21 6 0 16 -30 13 -36 -4 -4
-8 -12 -15 -20 -15 -8 0 -14 -6 -14 -12 0 -10 -2 -10 -8 -1 -6 9 -16 7 -40
-10 -32 -22 -41 -37 -22 -37 6 0 10 -4 10 -10 0 -5 -11 -10 -24 -10 -13 0 -23
6 -22 13 1 13 -6 17 -31 17 -17 -1 -17 -1 0 -11 22 -13 23 -42 0 -37 -9 2 -20
16 -24 32 -8 28 -24 46 -43 46 -5 0 0 -10 12 -23 22 -23 22 -24 4 -40 -36 -32
-72 -14 -72 35 0 16 7 31 15 34 26 10 17 41 -14 52 -29 10 -29 10 -24 -23 6
-36 -10 -53 -32 -35 -9 8 -13 21 -9 36 7 29 -11 32 -26 5 -8 -16 -19 -19 -55
-16 -27 1 -49 -2 -55 -10 -6 -7 -22 -16 -35 -19 -24 -6 -37 -39 -14 -34 6 2
14 -3 16 -10 4 -9 -3 -12 -24 -9 -20 2 -29 10 -31 25 -2 12 -8 19 -14 16 -5
-4 -21 0 -35 7 -22 12 -23 14 -6 20 16 7 17 8 1 8 -10 1 -18 6 -18 12 0 5 -5
7 -10 4 -6 -4 -8 -10 -5 -15 3 -4 -2 -13 -10 -20 -19 -16 -19 -31 0 -24 8 4
15 1 15 -5 0 -6 7 -8 15 -5 9 4 27 -7 45 -26 25 -26 33 -30 45 -20 8 6 18 9
23 6 6 -3 36 -1 67 5 38 7 61 7 68 0 6 -6 16 -6 29 2 16 10 22 9 36 -8 10 -11
24 -21 32 -23 8 -2 17 -8 18 -13 2 -5 12 -9 23 -9 10 0 28 -9 39 -20 11 -11
30 -22 43 -26 37 -9 60 -74 27 -74 -5 0 -16 7 -24 16 -14 13 -16 14 -16 0 0
-8 4 -17 10 -21 5 -3 6 -13 3 -21 -5 -14 -7 -14 -15 -1 -12 23 -62 7 -66 -21
-2 -12 -10 -22 -18 -22 -8 0 -14 -4 -14 -10 0 -5 -8 -6 -17 -3 -15 6 -15 7 3
14 18 7 18 8 -3 14 -12 4 -24 14 -26 24 -4 14 -5 14 -6 -1 0 -10 -5 -18 -11
-18 -5 0 -10 -7 -10 -15 0 -8 7 -15 15 -15 8 0 22 -14 31 -31 13 -26 14 -36 3
-55 -6 -13 -16 -21 -20 -18 -4 2 -25 -2 -45 -11 -46 -19 -54 -19 -54 0 0 8 -4
15 -10 15 -5 0 -10 -16 -10 -35 0 -19 -4 -35 -10 -35 -5 0 -10 -6 -10 -14 0
-16 -21 -26 -54 -26 -16 0 -22 5 -21 20 1 11 4 23 8 26 12 12 8 21 -13 27 -10
3 -24 -1 -31 -9 -6 -8 -20 -14 -29 -14 -10 0 -21 -6 -23 -12 -3 -7 -6 -4 -6 8
-1 17 -8 21 -43 22 -55 3 -86 -7 -67 -19 12 -7 11 -9 -1 -9 -9 0 -21 5 -28 12
-9 9 -11 4 -8 -19 3 -24 0 -32 -15 -36 -25 -7 -24 -23 1 -30 11 -3 20 -13 20
-22 0 -12 -5 -15 -16 -11 -9 3 -20 6 -25 6 -5 0 -9 9 -9 20 0 21 -15 27 -25
10 -3 -5 -2 -10 3 -10 15 0 23 -43 9 -52 -19 -12 -2 -19 51 -21 28 -2 55 -7
59 -12 4 -4 0 -6 -9 -2 -10 3 -19 0 -22 -9 -8 -22 -7 -26 4 -19 6 3 10 -3 10
-14 0 -26 -17 -36 -35 -21 -10 8 -19 9 -35 0 -26 -14 -40 -5 -40 26 0 13 -4
24 -10 24 -5 0 -10 12 -10 28 0 15 -7 38 -16 50 -8 12 -13 26 -9 31 3 5 0 21
-6 35 -9 20 -9 29 1 41 10 12 10 15 -1 15 -25 0 -35 -15 -34 -50 1 -44 -4 -54
-19 -41 -9 7 -19 6 -34 -5 -28 -20 -18 -48 14 -40 14 4 24 2 24 -4 0 -5 -4
-10 -10 -10 -5 0 -10 -4 -10 -9 0 -6 12 -9 26 -8 15 1 29 -4 32 -12 3 -10 -1
-12 -17 -8 -11 3 -21 2 -21 -2 0 -11 -47 -31 -70 -31 -14 0 -20 7 -20 21 0 11
-4 17 -10 14 -23 -14 -28 7 -13 51 13 39 13 49 2 71 -15 27 -10 33 51 74 34
23 19 39 -25 25 -27 -8 -34 -15 -29 -29 5 -15 2 -18 -13 -15 -10 2 -17 11 -15
19 3 11 1 12 -9 2 -7 -7 -21 -13 -30 -13 -19 0 -36 -33 -20 -38 16 -5 13 -28
-4 -42 -8 -7 -12 -16 -9 -21 3 -5 -2 -12 -11 -16 -10 -3 -21 0 -26 8 -6 10 -9
10 -9 2 0 -7 -11 -13 -25 -13 -14 0 -28 -6 -31 -14 -5 -12 -10 -12 -34 0 -15
8 -31 22 -34 31 -8 19 19 63 39 63 25 0 28 38 5 71 -21 28 -21 31 -6 48 9 10
30 18 46 19 38 1 53 10 46 29 -3 8 -1 24 5 35 10 18 8 19 -13 13 -26 -9 -42
-28 -27 -33 18 -7 -12 -32 -37 -32 -13 0 -31 8 -41 18 -27 28 -50 33 -68 16
-8 -9 -15 -12 -15 -7 0 4 -5 0 -11 -9 -5 -10 -21 -18 -33 -18 -17 0 -26 -7
-30 -25 -4 -14 -11 -25 -17 -25 -6 0 -8 7 -5 15 4 10 -2 19 -17 24 -29 11 -35
4 -12 -13 18 -13 18 -15 1 -41 -12 -18 -23 -25 -34 -20 -9 4 -22 9 -29 12 -22
9 -19 -32 5 -55 22 -21 28 -22 56 -11 65 26 116 61 116 80 0 10 -4 19 -10 19
-5 0 -10 -7 -10 -15 0 -8 -4 -15 -10 -15 -16 0 -12 15 13 44 18 21 30 26 51
22 39 -7 44 -15 22 -31 -20 -15 -12 -40 10 -31 12 5 34 -27 34 -48 0 -2 -15
-6 -32 -10 -23 -5 -29 -9 -20 -15 11 -7 10 -11 -3 -24 -13 -13 -20 -14 -35 -5
-15 9 -27 8 -62 -7 -24 -10 -50 -24 -58 -31 -8 -6 -24 -14 -35 -18 -11 -3 -41
-26 -67 -50 -33 -33 -42 -46 -31 -50 8 -3 24 3 35 14 24 22 44 26 50 9 2 -6
14 -8 30 -4 19 5 24 12 21 25 -4 13 7 26 37 45 54 34 110 45 110 21 0 -9 7
-16 15 -16 9 0 12 -6 9 -15 -4 -9 0 -15 9 -15 16 0 30 -24 20 -34 -3 -3 -18
-3 -32 1 -22 5 -24 4 -14 -9 7 -8 10 -18 6 -21 -3 -4 2 -7 11 -7 10 0 16 -6
13 -12 -4 -14 -81 -16 -134 -4 -30 7 -31 6 -28 -21 2 -18 -4 -32 -16 -41 -20
-14 -26 -42 -9 -42 6 0 10 3 10 8 0 4 7 16 15 26 13 18 16 18 39 2 33 -21 62
-20 78 2 18 24 63 52 84 52 10 0 14 -3 11 -7 -4 -3 -2 -12 5 -20 8 -11 7 -12
-6 -7 -9 3 -16 2 -16 -4 0 -5 7 -12 15 -16 8 -3 15 -10 15 -17 0 -6 -7 -9 -15
-6 -16 7 -63 -15 -77 -35 -6 -9 -7 -6 -3 10 6 22 -8 31 -20 12 -4 -6 -11 -7
-17 -4 -7 4 -8 -2 -3 -17 7 -22 7 -23 -10 -9 -11 9 -16 10 -11 3 4 -7 3 -13
-3 -13 -5 0 -11 5 -13 11 -2 7 -13 9 -27 4 -16 -5 -21 -12 -16 -23 11 -30 10
-37 -5 -33 -40 10 -55 5 -70 -25 -21 -43 -60 -94 -71 -94 -5 0 -9 15 -9 34 0
35 -13 55 -25 36 -3 -5 -15 -10 -26 -10 -14 0 -19 -7 -19 -29 0 -17 5 -33 10
-36 14 -9 12 -35 -3 -35 -13 0 -27 -45 -46 -146 -16 -86 -14 -124 4 -124 17 0
31 31 47 104 8 37 22 62 56 98 24 26 49 48 54 48 10 0 86 48 106 67 7 7 19 14
25 14 7 1 18 2 26 3 8 0 16 6 18 12 2 7 -9 9 -29 7 -32 -4 -32 -4 -13 12 12
10 30 14 47 11 24 -5 29 -1 44 34 10 21 21 37 26 34 4 -3 29 15 55 41 27 25
59 49 73 52 14 3 37 12 52 19 48 24 198 19 198 -7 0 -6 -4 -7 -10 -4 -5 3 -20
-1 -33 -10 -13 -8 -33 -13 -43 -9 -16 4 -16 4 -4 -5 15 -9 137 0 183 15 16 5
18 2 12 -15 -5 -18 -2 -21 23 -21 16 0 48 -6 70 -14 52 -19 155 -84 148 -95
-3 -4 8 -8 24 -8 30 0 104 -48 95 -62 -2 -5 3 -19 13 -32 10 -13 19 -40 20
-59 l2 -35 -24 30 -25 30 -1 -27 c0 -23 -5 -28 -24 -28 -13 0 -27 -7 -30 -15
-5 -14 -13 -12 -53 11 l-48 27 45 -49 c59 -63 56 -62 120 -80 30 -8 63 -19 73
-25 12 -6 17 -6 17 2 0 18 40 -22 41 -40 0 -10 3 -11 5 -4 3 7 0 21 -6 32 -18
35 -3 23 22 -16 12 -21 22 -44 20 -50 -2 -7 2 -13 8 -13 6 0 8 -5 5 -10 -4 -6
-11 -8 -16 -5 -5 4 -9 1 -9 -4 0 -6 5 -11 10 -11 6 0 10 -10 10 -22 -1 -23 -1
-23 -16 -3 l-16 20 5 -20 c13 -49 18 -110 8 -95 -6 8 -11 23 -11 33 0 9 -4 17
-10 17 -5 0 -10 -4 -10 -9 0 -5 -13 -23 -30 -41 -21 -23 -35 -30 -49 -25 -18
5 -19 3 -14 -32 10 -61 9 -75 -8 -86 -31 -19 -65 14 -73 70 l-6 49 -41 3 c-48
2 -68 -17 -69 -64 0 -36 -14 -62 -24 -46 -4 6 -20 8 -38 4 -22 -4 -29 -3 -24
5 4 7 1 12 -9 12 -9 0 -13 -5 -10 -11 5 -7 -4 -8 -27 -4 -20 4 -43 1 -58 -7
l-25 -13 22 -21 c12 -12 24 -20 27 -18 3 2 4 1 1 -3 -3 -3 1 -13 7 -21 10 -11
9 -17 -6 -27 -15 -12 -5 -14 73 -14 50 0 100 -3 112 -6 l21 -7 -21 -22 c-12
-12 -18 -25 -15 -28 3 -4 3 -15 0 -26 -7 -22 -46 -36 -60 -22 -5 5 -19 4 -33
-3 -19 -8 -26 -8 -33 2 -10 18 -30 5 -30 -19 0 -19 -5 -19 -47 -3 -27 10 -153
9 -153 -1 0 -5 -9 -1 -20 9 -11 10 -23 15 -27 12 -4 -4 2 -14 13 -22 16 -12
16 -14 3 -15 -31 0 -168 63 -217 101 -29 22 -14 32 21 14 15 -8 27 -10 27 -4
0 5 -4 9 -10 9 -5 0 -10 4 -10 8 0 7 61 31 197 76 31 10 59 49 47 67 -5 8 29
65 47 79 3 3 11 15 17 26 9 17 8 24 -3 34 -8 6 -19 9 -25 5 -6 -4 -18 -1 -27
7 -11 9 -17 9 -20 2 -2 -7 -25 -9 -61 -6 l-57 5 33 -37 c17 -20 32 -38 32 -40
0 -3 -22 2 -50 9 -27 7 -50 12 -50 10 0 -2 24 -18 53 -35 28 -17 41 -28 27
-24 -14 4 -55 8 -92 8 -52 1 -73 6 -97 23 -28 21 -51 17 -36 -7 11 -18 -22
-10 -40 10 -22 24 -40 26 -31 3 9 -21 -13 -34 -36 -22 -23 13 -23 13 12 -76
30 -76 36 -105 23 -105 -13 1 -53 38 -53 49 0 6 -5 11 -11 11 -5 0 -8 4 -5 8
3 5 -6 20 -18 35 -23 27 -24 27 -29 6 -5 -20 -10 -21 -52 -16 l-46 7 6 -38 c4
-20 13 -68 21 -107 13 -62 44 -258 44 -277 0 -5 201 -8 448 -8 l447 0 27 48
c37 65 114 154 168 194 91 68 219 102 328 88 32 -4 60 -1 83 8 l34 14 -22 15
c-13 9 -23 24 -23 34 0 11 -4 19 -10 19 -18 0 -11 45 9 57 11 7 22 26 26 43 4
19 15 34 29 40 12 4 51 31 86 59 62 50 118 75 146 64 10 -4 11 -10 3 -25 -8
-15 -6 -23 9 -36 15 -13 52 -99 52 -120 0 -2 -9 -2 -19 1 -13 3 -18 0 -16 -12
4 -25 -5 -33 -23 -19 -13 11 -15 10 -9 -4 3 -10 2 -18 -3 -18 -21 0 -7 -21 54
-82 44 -43 71 -80 85 -115 16 -41 17 -51 6 -47 -8 3 -13 9 -12 12 3 10 -55 72
-63 67 -3 -2 -6 5 -6 15 2 40 -19 23 -22 -18 -4 -50 25 -107 91 -182 22 -25
44 -57 49 -72 l10 -28 663 0 663 0 -10 33 c-6 17 -16 43 -22 56 -14 31 -12 89
4 126 10 23 14 26 17 13 6 -23 16 -23 38 2 18 20 41 28 31 11 -3 -5 0 -14 7
-19 10 -8 20 -5 40 14 l28 25 34 -38 c19 -21 35 -43 35 -49 0 -18 23 -57 48
-82 20 -20 27 -45 23 -79 -3 -19 632 -19 648 0 16 20 81 39 121 35 l35 -3 -40
-20 -40 -20 315 -3 c292 -2 316 -1 330 15 12 14 20 16 38 8 12 -5 22 -13 22
-17 0 -5 236 -8 525 -8 289 0 525 2 525 4 0 13 -28 55 -33 49 -13 -13 -7 8 10
35 32 49 37 52 72 34 32 -15 33 -17 29 -69 l-5 -53 198 0 198 0 -9 32 c-16 55
-25 212 -12 204 7 -4 12 -2 12 5 0 7 6 4 14 -7 13 -17 15 -13 11 41 -1 33 -8
61 -15 63 -7 3 -7 8 3 16 19 14 29 103 13 111 -8 3 -8 7 0 10 7 4 3 35 -12 98
l-23 92 20 15 20 16 -20 26 c-20 25 -20 26 -2 21 11 -3 22 -14 25 -26 4 -18 7
-19 18 -8 10 10 10 15 1 18 -7 2 -9 11 -6 20 5 13 9 11 25 -8 l20 -24 -7 29
c-5 26 -4 28 9 16 27 -22 56 -100 55 -149 0 -37 -2 -42 -10 -26 -8 16 -8 14
-4 -10 13 -83 36 -170 46 -179 9 -8 10 -4 6 14 -17 76 -19 103 -8 96 6 -4 11
-15 11 -25 0 -10 9 -44 20 -77 20 -56 54 -293 45 -303 -3 -2 -5 3 -5 12 0 25
-27 9 -35 -20 -4 -17 -11 -24 -23 -21 -16 5 -20 -12 -13 -62 1 -6 110 -10 306
-10 l305 0 0 789 0 788 -25 -5 c-15 -2 -25 0 -25 7 0 7 6 11 13 10 29 -4 37 3
37 31 0 23 -4 30 -20 30 -14 0 -20 7 -20 21 0 11 4 17 10 14 6 -3 7 1 4 10 -6
14 -8 14 -20 -2 -7 -10 -14 -32 -14 -49 0 -16 -7 -39 -16 -50 -14 -18 -15 -18
-10 -1 16 51 17 64 2 76 -9 8 -16 9 -16 4 0 -5 -11 -15 -24 -21 l-25 -11 13
37 c7 20 16 55 20 77 4 22 13 49 19 60 6 11 12 26 13 33 1 7 21 49 43 93 l41
80 0 224 c0 237 -3 251 -44 206 -9 -10 -44 -26 -76 -35 -33 -9 -62 -21 -66
-27 -3 -6 -23 -7 -49 -4 -27 5 -45 3 -49 -4 -18 -28 -127 -5 -181 39 -10 8
-16 10 -33 10 -10 0 -98 85 -106 102 -6 13 -2 -14 6 -42 3 -8 3 -12 1 -7 -11
19 -21 -7 -11 -28 11 -25 28 -34 28 -15 0 6 4 10 9 10 17 0 -14 -49 -34 -54
-24 -7 -34 2 -15 14 13 8 13 12 -2 27 -17 16 -19 16 -45 -7 -19 -17 -17 -13 6
12 31 34 33 40 23 63 -7 14 -13 49 -13 78 -1 45 -2 48 -9 22 -6 -25 -8 -22 -9
24 -1 64 -20 133 -34 124 -6 -4 -7 -1 -2 6 4 7 2 24 -5 37 -16 29 -70 42 -107
25 -24 -11 -25 -11 -13 5 11 13 25 15 62 11 48 -6 48 -6 48 23 0 16 9 37 20
48 11 10 25 33 30 50 8 30 7 31 -12 21 -12 -7 -18 -7 -14 -1 3 6 3 12 -1 15
-5 2 -3 3 3 1 20 -4 54 26 54 47 0 16 -5 19 -22 14 -21 -6 -22 -5 -5 8 9 8 17
22 17 31 0 22 53 76 75 76 12 0 15 6 10 20 -7 23 13 28 21 5 4 -10 20 -15 50
-15 42 0 44 1 38 24 -3 13 -1 27 4 30 6 4 8 -2 5 -14 -10 -38 12 -20 30 25 11
25 23 45 28 45 5 0 0 -18 -11 -40 -11 -21 -20 -41 -20 -44 0 -2 23 3 50 12 28
9 50 22 50 29 0 16 12 17 26 3 7 -7 33 -7 83 0 39 7 103 10 141 8 l70 -3 0
206 c0 233 5 219 -80 219 -38 0 -52 -5 -63 -21 -10 -13 -17 -17 -22 -10 -9 16
-25 3 -25 -21 0 -11 -10 -29 -22 -40 -20 -17 -23 -18 -26 -4 -2 9 -8 16 -14
16 -5 0 -7 -12 -3 -28 7 -33 -6 -48 -45 -54 -20 -2 -26 2 -28 20 -2 13 0 31 4
40 4 9 9 26 11 37 2 10 10 30 18 42 l15 23 -80 0 c-46 0 -80 -4 -80 -10 0 -22
-78 -100 -100 -100 -9 0 -26 7 -39 16 -23 16 -24 34 -6 77 7 16 1 18 -80 15
l-88 -3 -13 -43 c-24 -84 -91 -199 -133 -228 -18 -13 -23 -13 -46 2 -17 11
-22 20 -15 24 7 4 11 9 10 11 -1 2 2 17 5 32 11 44 -3 44 -22 1 -9 -21 -16
-41 -16 -45 1 -3 -7 -10 -18 -17 -16 -10 -19 -9 -19 4 0 9 -7 14 -17 12 -23
-4 -27 -23 -8 -42 15 -15 15 -16 -2 -16 -11 0 -24 -5 -31 -12 -9 -9 -12 -7
-12 10 0 18 -37 97 -60 127 -18 23 -80 155 -80 169 0 9 -8 16 -18 16 -14 0
-20 -15 -30 -80 -7 -44 -15 -87 -18 -95 -9 -23 -34 -5 -30 21 3 13 -2 30 -10
38 -8 8 -14 27 -14 43 0 49 -11 73 -33 73 -11 0 -17 -3 -14 -6 3 -4 0 -16 -8
-28 -8 -11 -15 -31 -15 -43 0 -13 -4 -23 -9 -23 -4 0 -7 -12 -5 -27 1 -15 -3
-35 -11 -46 -7 -11 -11 -26 -8 -33 5 -14 -7 -18 -36 -14 -9 1 -12 -5 -8 -19 3
-14 0 -21 -9 -21 -8 0 -14 -7 -14 -15 0 -8 -18 -24 -40 -35 -22 -11 -40 -17
-40 -14 0 4 -9 -3 -20 -16 -11 -13 -20 -37 -20 -56 0 -18 -4 -35 -9 -38 -4 -3
-11 -74 -14 -158 -3 -84 -8 -162 -12 -173 -7 -22 -85 -76 -98 -68 -4 3 0 12
10 20 10 8 12 11 4 7 -9 -4 -19 0 -28 11 -12 17 -13 17 -13 2 0 -22 -8 -21
-45 1 -60 37 -115 193 -141 402 -8 63 -18 147 -24 185 -5 39 -9 93 -10 122 0
77 -5 83 -62 83 l-49 0 8 -172 c4 -95 7 -185 8 -200 0 -16 2 -28 6 -28 12 0 9
-84 -4 -104 -8 -11 -17 -47 -20 -78 -4 -32 -16 -72 -26 -90 -11 -18 -29 -51
-41 -73 -38 -69 -46 -75 -116 -75 -68 0 -127 21 -155 55 -14 17 -20 18 -43 7
-37 -17 -61 -2 -91 57 -13 27 -40 63 -58 81 -23 21 -37 45 -41 69 -3 20 -12
45 -20 56 -14 19 -15 17 -16 -23 0 -31 -4 -42 -12 -38 -7 3 -32 11 -55 18 -24
7 -43 17 -43 23 0 20 -64 88 -109 116 -65 41 -148 37 -175 -9 -6 -11 -13 -6
-30 23 -33 59 -62 75 -146 81 -107 8 -119 11 -113 32 2 10 -6 29 -18 42 -11
14 -38 45 -58 70 -20 25 -38 47 -41 50 -3 3 -21 26 -40 52 -19 26 -44 49 -55
52 -11 3 -152 6 -314 6 l-293 0 54 -62z m365 -288 c3 -10 16 -26 29 -35 13 -8
24 -22 24 -29 0 -8 6 -16 13 -19 8 -3 4 -12 -13 -28 -14 -13 -34 -43 -44 -66
-14 -31 -32 -50 -64 -68 -49 -28 -62 -25 -62 11 0 14 -4 22 -10 19 -6 -4 -10
9 -10 31 0 26 7 43 25 60 26 24 19 40 -15 29 -25 -8 -38 19 -20 40 10 12 9 15
-4 15 -9 0 -16 5 -16 10 0 6 1 10 3 10 1 0 27 9 57 20 73 25 101 25 107 0z
m770 -393 c11 -1 19 -5 17 -9 -3 -4 5 -12 16 -18 16 -9 20 -8 20 5 0 22 16 19
85 -20 70 -39 90 -58 82 -79 -9 -23 -149 -10 -212 19 -27 13 -51 22 -54 20 -2
-3 1 -16 7 -30 17 -37 -2 -31 -53 18 -48 47 -58 77 -25 77 12 0 20 7 20 16 0
13 7 15 38 10 20 -4 47 -8 59 -9z m-437 -73 c0 -9 -31 -47 -70 -85 -54 -54
-70 -77 -75 -107 -6 -38 -85 -202 -97 -202 -21 0 -42 124 -25 155 6 11 45 56
87 100 42 44 82 91 89 103 7 13 27 30 44 37 41 18 47 18 47 -1z m191 -25 c19
-19 21 -29 16 -83 -12 -115 -44 -184 -102 -216 -29 -16 -40 -38 -65 -128 -14
-54 -34 -50 -38 8 -4 49 10 88 50 145 30 43 69 150 88 239 6 31 16 56 21 56 5
0 19 -10 30 -21z m-1646 -436 c22 -14 65 -48 97 -75 l56 -48 67 25 c39 14 89
25 119 25 28 1 77 7 108 14 99 24 240 0 365 -62 47 -24 176 -134 193 -166 12
-24 12 -28 0 -37 -13 -8 -13 -11 2 -19 9 -6 19 -23 23 -39 3 -15 19 -41 36
-57 16 -15 34 -44 39 -63 12 -45 13 -123 1 -153 -5 -13 -12 -36 -16 -52 -4
-21 -9 -26 -14 -17 -14 22 -24 -6 -17 -45 5 -23 3 -33 -4 -32 -11 3 -40 -63
-40 -89 0 -7 -9 -22 -21 -34 -11 -11 -18 -27 -15 -35 4 -10 -2 -14 -19 -14
-14 0 -25 -5 -25 -11 0 -6 9 -8 21 -4 15 5 20 3 17 -6 -3 -8 -12 -14 -21 -14
-9 0 -23 -9 -32 -20 -16 -20 -16 -20 -12 3 7 29 -5 28 -34 -3 -13 -13 -32 -25
-41 -25 -10 0 -26 -7 -37 -16 -11 -10 -36 -23 -57 -30 -43 -15 -41 -16 -76 51
-38 73 -97 152 -140 190 -117 100 -314 187 -458 200 -68 7 -89 16 -90 37 0 4
6 5 13 2 8 -3 16 8 22 28 8 25 18 35 45 42 19 5 39 17 44 25 5 9 36 41 68 72
32 31 58 65 58 75 0 9 5 32 11 49 13 34 5 85 -11 85 -6 0 -10 -7 -10 -15 0
-18 -21 -20 -39 -2 -11 10 -13 9 -8 -5 4 -10 2 -18 -3 -18 -5 0 -7 -7 -4 -15
4 -8 1 -15 -5 -15 -12 0 -58 59 -53 67 2 4 -3 10 -12 15 -9 5 -16 16 -16 23 0
17 -26 20 -35 5 -4 -6 -11 -8 -16 -4 -12 7 -40 73 -37 88 1 6 -4 22 -11 34 -7
13 -10 26 -7 29 3 3 -1 21 -9 40 -8 20 -15 37 -15 39 0 10 18 2 55 -23z m4115
-209 c5 -5 -1 -34 -12 -64 -11 -30 -20 -69 -19 -86 1 -27 -4 -33 -31 -44 -18
-7 -38 -19 -44 -27 -15 -17 -61 1 -69 28 -3 10 -11 16 -18 13 -8 -3 -12 10
-12 41 -1 29 3 45 11 45 18 0 84 65 84 82 0 8 2 17 4 19 8 8 97 2 106 -7z
m-4952 -345 c12 -5 22 -13 22 -19 0 -5 11 -10 24 -10 31 0 59 -53 44 -85 -7
-16 -5 -30 10 -57 23 -41 19 -84 -9 -91 -19 -5 -26 7 -10 17 10 7 3 46 -9 46
-4 0 -19 -12 -33 -26 -15 -15 -36 -25 -49 -24 -43 4 -56 0 -61 -19 -3 -14 0
-17 14 -14 11 3 19 1 19 -5 0 -6 -17 -14 -37 -18 -21 -4 -46 -13 -57 -20 -19
-13 -50 -8 -40 7 3 5 -8 9 -25 9 -16 0 -31 -6 -34 -12 -3 -10 -7 -10 -20 1
-15 12 -17 11 -17 -8 0 -15 -6 -21 -23 -21 -13 0 -33 -9 -45 -20 -12 -11 -30
-20 -41 -20 -11 0 -23 -4 -26 -10 -11 -17 -35 -11 -43 11 -12 30 17 90 41 85
9 -2 17 0 17 5 0 5 11 14 25 21 19 8 28 8 41 -3 13 -10 18 -11 21 -2 2 7 11 9
19 6 8 -3 14 0 14 5 0 6 -8 12 -19 14 -15 2 -17 7 -9 28 9 23 10 24 22 8 16
-21 46 -24 46 -4 0 8 -7 17 -16 20 -15 6 -14 10 6 31 13 14 31 25 41 25 19 0
33 37 15 43 -6 2 1 10 16 18 15 8 28 19 28 24 4 22 35 64 54 73 20 10 37 8 84
-9z m965 -230 c7 -6 43 -27 80 -47 56 -30 75 -47 103 -92 31 -50 33 -58 22
-83 -7 -14 -19 -29 -26 -32 -18 -7 -127 39 -169 71 -23 17 -51 27 -89 31 -51
6 -57 4 -87 -24 -39 -37 -71 -55 -89 -48 -7 3 -23 -11 -36 -33 -27 -43 -122
-112 -155 -112 -13 0 -32 -6 -43 -14 -19 -14 -19 -15 1 -21 11 -4 36 -13 55
-21 37 -15 58 -18 102 -16 23 2 31 12 58 71 42 90 55 96 160 82 86 -11 105
-20 115 -52 3 -10 29 -33 57 -51 44 -29 59 -33 118 -33 83 0 100 -12 100 -71
0 -38 -6 -49 -43 -86 -54 -54 -106 -98 -118 -98 -18 0 -135 -43 -149 -55 -50
-43 -155 -38 -260 11 -41 20 -79 36 -83 37 -5 1 -14 -14 -21 -33 -10 -32 -15
-35 -48 -34 -57 2 -67 9 -104 86 -20 40 -47 88 -60 107 -13 19 -24 48 -24 65
1 49 20 119 38 139 9 11 16 22 16 26 -4 17 12 32 51 52 42 21 65 52 65 88 0
10 12 31 28 46 24 25 32 27 79 22 29 -3 55 -2 58 3 3 5 18 11 33 15 15 3 53
26 83 51 29 24 65 47 79 50 14 3 30 7 35 9 22 7 56 4 68 -6z m1337 -58 c0 -3
-7 -15 -15 -25 -22 -29 -18 -36 10 -23 14 7 25 15 25 20 0 4 4 7 9 7 5 0 7 -9
4 -20 -4 -14 0 -20 11 -20 10 0 15 -4 12 -9 -4 -5 3 -7 14 -4 11 3 20 10 20
15 0 5 4 6 10 3 5 -3 -2 -17 -18 -31 -26 -25 -26 -25 -2 -13 24 12 24 11 -5
-24 -17 -19 -34 -34 -40 -33 -5 2 -18 -1 -28 -6 -14 -7 -24 -5 -38 11 -11 12
-15 21 -10 21 6 0 15 9 20 19 9 16 8 18 -8 14 -16 -4 -19 -1 -15 19 2 12 2 17
-2 11 -3 -7 -10 -13 -15 -13 -6 0 -7 5 -4 10 3 6 1 10 -4 10 -6 0 -11 -4 -11
-9 0 -5 -7 -12 -16 -15 -13 -5 -15 -1 -9 21 8 35 45 75 62 69 7 -3 13 -1 13 4
0 5 7 7 15 4 8 -4 15 -9 15 -13z m1656 -65 c65 -30 128 -84 115 -100 -6 -8 -2
-15 15 -23 13 -6 22 -7 19 -3 -3 5 -1 12 5 15 6 4 9 1 8 -7 -2 -8 4 -12 16
-10 11 2 15 -1 11 -7 -3 -6 -14 -11 -23 -12 -14 0 -13 -2 3 -8 11 -5 23 -4 26
2 7 10 29 1 29 -13 0 -4 -11 -11 -24 -14 -13 -3 -30 -8 -38 -11 -7 -3 -32 12
-55 34 -33 31 -45 36 -53 26 -8 -10 -7 -14 2 -18 7 -3 3 -6 -9 -6 -19 -1 -23
-7 -23 -36 0 -21 -6 -37 -17 -43 -15 -9 -15 -11 0 -26 16 -16 15 -19 -3 -38
-11 -12 -20 -34 -20 -49 0 -18 -9 -32 -25 -43 -32 -21 -101 -27 -97 -8 1 6 -2
12 -6 12 -5 0 -17 6 -27 14 -17 12 -17 13 8 18 15 3 25 2 22 -1 -2 -4 5 -13
17 -20 14 -9 18 -9 13 -1 -6 9 -2 9 14 1 14 -8 27 -9 40 -2 10 6 21 7 25 4 3
-4 1 8 -5 25 -6 18 -15 29 -20 26 -5 -3 -9 -2 -9 3 0 11 -54 13 -61 2 -3 -5
-23 -13 -44 -16 -23 -4 -36 -2 -32 3 3 6 2 16 -4 24 -7 12 -9 12 -9 -3 0 -15
-3 -16 -22 -5 -13 7 -29 11 -35 10 -7 -2 -13 2 -13 9 0 6 -7 9 -17 5 -16 -5
-16 -5 -2 6 9 7 14 20 12 28 -4 13 -3 13 9 0 18 -21 48 -24 48 -6 0 8 -5 18
-10 21 -16 10 8 35 26 28 12 -4 10 3 -5 31 -12 20 -21 38 -21 39 0 11 52 4 56
-8 8 -21 23 -19 18 3 -2 9 0 24 6 32 8 12 12 13 19 2 7 -11 9 -11 14 2 4 9 14
16 23 16 16 0 43 26 44 43 0 4 -29 7 -65 7 -69 0 -78 6 -44 30 11 8 28 20 37
27 27 19 83 15 138 -11z m-1840 -131 c6 -8 9 -26 6 -40 -4 -23 -1 -25 33 -25
32 0 36 -2 25 -15 -14 -16 -6 -35 16 -35 8 0 14 -5 14 -11 0 -7 -13 -10 -34
-7 -27 3 -36 0 -39 -13 -3 -10 -15 -19 -28 -21 -13 -1 -24 -10 -24 -18 0 -8
-10 -16 -22 -18 -13 -2 -23 1 -23 6 0 5 -12 7 -27 4 -27 -4 -25 -2 19 43 26
27 47 50 45 51 -8 8 -77 -23 -77 -36 -1 -18 -24 -50 -36 -50 -5 0 -20 10 -34
23 -34 32 -50 24 -50 -24 0 -38 -1 -39 -27 -33 -57 14 -61 37 -21 117 26 51
48 78 58 72 4 -3 10 2 14 10 8 21 33 19 53 -4 16 -20 17 -19 49 14 26 28 37
33 65 30 19 -3 39 -11 45 -20z m-2273 -74 c37 -10 71 -21 74 -25 6 -5 -32 -44
-46 -47 -45 -10 -75 0 -79 26 -1 6 -6 10 -12 9 -5 -1 -17 -2 -25 -2 -8 -1 -15
-7 -15 -13 0 -6 7 -9 15 -5 9 3 15 0 15 -8 0 -12 -32 -18 -104 -17 -23 0 -23
1 -28 31 -2 20 3 26 27 34 17 5 44 15 60 22 38 17 37 17 118 -5z m2498 -121
c20 -11 18 -14 -35 -67 -54 -54 -56 -55 -99 -49 -32 5 -53 16 -77 41 -19 19
-29 35 -22 35 7 0 12 -5 12 -11 0 -13 50 -3 65 13 7 8 5 9 -7 5 -12 -4 -15 -2
-11 9 3 8 12 13 20 10 8 -3 20 0 27 7 17 16 100 21 127 7z m2605 -261 c4 -6
20 -8 39 -5 33 7 55 -6 35 -19 -6 -4 -44 -8 -83 -9 -94 -3 -130 -24 -121 -71
8 -46 -13 -113 -45 -144 -15 -14 -31 -35 -35 -46 -7 -18 -9 -17 -21 11 -7 17
-25 39 -39 50 l-27 19 23 43 c13 23 29 42 36 42 6 0 12 4 12 10 0 5 6 7 14 4
10 -4 12 1 9 19 -4 17 2 30 21 45 14 11 26 24 26 29 0 22 28 33 86 33 35 0 66
-5 70 -11z m-2012 -72 c11 -8 17 -23 14 -38 -3 -23 -7 -24 -83 -27 -57 -2 -82
-7 -88 -17 -10 -19 -41 -19 -57 0 -16 19 -5 35 25 35 17 0 26 8 34 30 10 29
12 30 74 30 36 0 71 -6 81 -13z m453 -34 c29 -20 83 -125 83 -164 0 -104 -89
-147 -105 -51 -12 71 -27 103 -50 112 -12 5 -28 23 -34 41 -10 29 -9 35 11 56
26 27 59 29 95 6z m-1473 -236 c39 -18 64 -40 97 -83 25 -33 48 -67 52 -76 8
-23 -10 -23 -34 -2 -10 9 -47 19 -86 23 -88 11 -271 7 -282 -5 -11 -12 -65
-118 -91 -179 -51 -117 -58 -122 -108 -80 l-31 26 -15 -29 c-8 -16 -12 -39 -9
-51 3 -13 -1 -29 -12 -41 -38 -42 -65 8 -65 124 0 68 4 88 20 109 13 17 26 23
40 20 15 -4 22 2 30 23 33 86 55 117 98 135 24 11 61 19 82 19 29 0 41 6 54
25 10 14 29 31 44 37 82 33 100 38 130 34 18 -3 57 -16 86 -29z m1208 -246 c9
-8 14 -20 11 -28 -4 -9 0 -11 11 -7 9 3 16 2 16 -4 0 -5 -6 -12 -14 -15 -8 -3
-12 -17 -10 -35 6 -50 -33 -72 -98 -57 -21 6 -27 3 -33 -14 -7 -24 -45 -29
-45 -6 0 24 -40 57 -61 52 -10 -3 -19 -1 -19 4 0 5 20 14 45 20 41 10 45 15
51 48 3 20 13 41 21 48 20 15 104 12 125 -6z"/>
<path d="M13962 2877 c-12 -7 -19 -16 -16 -20 4 -4 -7 -7 -24 -7 -22 0 -30 -4
-26 -13 5 -13 64 -20 64 -8 0 4 9 12 21 19 18 12 19 11 10 -5 -9 -17 -39 -37
-68 -45 -8 -2 -7 -9 4 -23 11 -14 17 -16 20 -7 3 6 9 12 14 12 6 0 7 -4 4 -10
-3 -5 -1 -10 4 -10 6 0 11 -8 12 -17 0 -12 2 -13 6 -5 3 7 16 18 30 23 20 8
23 12 13 24 -6 7 -21 16 -33 18 -12 3 -5 3 16 2 21 -2 41 -6 44 -9 3 -3 -1
-20 -10 -38 -10 -21 -12 -37 -6 -42 5 -6 10 -19 10 -30 1 -12 5 1 10 28 4 27
13 52 19 56 9 6 9 13 1 29 -9 16 -9 21 1 21 7 1 3 6 -10 14 -19 10 -21 15 -10
23 7 6 16 12 21 12 4 1 8 4 10 9 1 4 -13 8 -31 9 -27 1 -31 -1 -21 -13 15 -18
-2 -18 -27 1 -23 17 -23 17 -52 2z"/>
<path d="M8417 2835 c-4 -9 -1 -15 8 -15 7 0 17 -4 20 -10 7 -11 -8 -42 -18
-41 -4 1 -8 1 -9 0 -2 0 -16 -2 -33 -4 -16 -2 -31 -9 -33 -15 -2 -5 -8 -8 -12
-5 -10 6 -50 -24 -50 -37 0 -15 40 -48 59 -48 19 0 70 -35 84 -57 14 -22 27
-14 27 15 0 19 7 32 20 38 13 6 17 13 11 23 -6 10 -13 11 -29 2 -11 -6 -23 -7
-26 -2 -3 4 -17 6 -31 3 -14 -2 -25 0 -25 6 0 6 10 12 23 14 12 2 22 8 22 15
0 6 14 27 30 46 35 40 43 72 14 57 -14 -8 -21 -5 -32 10 -12 18 -15 18 -20 5z"/>
<path d="M6789 964 c-9 -11 -7 -14 10 -14 30 0 26 -17 -6 -23 -90 -18 -116
-26 -123 -36 -3 -7 -14 -9 -23 -5 -10 3 -17 1 -17 -5 0 -7 -15 -11 -32 -11
-86 1 -257 -12 -290 -22 l-38 -11 0 -90 c0 -50 5 -131 12 -180 l11 -90 31 35
c17 19 59 75 94 125 82 119 175 208 232 223 52 14 99 7 133 -20 14 -11 27 -20
30 -20 7 0 47 106 47 123 0 7 -13 18 -30 24 -23 9 -32 8 -41 -3z"/>
<path d="M7120 930 c-18 -34 -24 -39 -36 -29 -12 10 -13 9 -8 -5 6 -17 -28
-99 -51 -122 -7 -8 -25 -18 -39 -24 -33 -12 -34 -30 -1 -30 14 0 25 -4 25 -10
0 -5 -7 -10 -15 -10 -20 0 -19 -14 6 -88 24 -72 34 -71 74 7 18 37 22 57 18
99 -5 44 -3 51 9 47 11 -5 17 4 21 33 7 40 35 74 77 91 22 9 20 10 -22 10
l-47 1 11 31 c16 46 2 46 -22 -1z"/>
<path d="M7992 768 c-7 -7 -12 -19 -12 -27 0 -11 -3 -12 -11 -4 -9 9 -17 3
-34 -22 -13 -18 -26 -42 -30 -54 -3 -12 -12 -21 -18 -22 -7 -1 -21 -2 -31 -3
-30 -2 -30 -23 1 -34 15 -5 36 -13 46 -17 12 -5 17 -2 17 11 0 17 8 19 75 19
64 -1 76 2 81 18 4 12 9 15 17 8 9 -7 11 4 8 42 -3 52 -22 80 -48 70 -8 -3
-22 2 -32 11 -13 12 -20 13 -29 4z"/>
<path d="M813 592 c-30 -3 -31 -5 -27 -40 5 -34 4 -35 -9 -19 -22 27 -30 7
-32 -82 -4 -117 5 -181 24 -181 12 0 13 -2 4 -8 -10 -6 -8 -22 8 -73 52 -160
74 -167 63 -18 l-7 99 39 0 c22 0 66 -5 99 -11 33 -5 69 -11 80 -13 11 -2 34
-6 52 -10 28 -7 37 -3 68 28 52 52 136 68 209 40 9 -3 16 -2 16 3 0 8 -10 14
-170 92 -105 51 -303 154 -333 173 -31 20 -47 24 -84 20z"/>
</g>
</svg>
